<svg width="16" height="11" viewBox="0 0 16 11" fill="none" xmlns="http://www.w3.org/2000/svg">
<path d="M7.99044 0.947625C8.39644 0.947126 8.78294 1.12163 9.05094 1.42613L15.0684 8.26613C15.4639 8.73763 15.4109 9.43863 14.9489 9.84513C14.4869 10.2516 13.7849 10.2146 13.3679 9.76213L8.10593 3.78113C8.07693 3.74813 8.03494 3.72863 7.99044 3.72863C7.94594 3.72863 7.90443 3.74763 7.87493 3.78113L2.61293 9.76213C2.34893 10.0771 1.93493 10.2241 1.53093 10.1466C1.12693 10.0691 0.797433 9.77862 0.668933 9.38862C0.540433 8.99812 0.633433 8.56863 0.911933 8.26663L6.92743 1.42913C7.19593 1.12363 7.58293 0.948625 7.98993 0.948125L7.99044 0.947625Z" fill="#55576F"/>
</svg>
