<svg width="16" height="10" viewBox="0 0 16 10" fill="none" xmlns="http://www.w3.org/2000/svg">
<path d="M8.00957 9.36976C7.60357 9.37026 7.21707 9.19576 6.94907 8.89126L0.931565 2.05126C0.536065 1.57976 0.589065 0.878757 1.05106 0.472257C1.51306 0.0657566 2.21506 0.102757 2.63206 0.555257L7.89407 6.53626C7.92307 6.56926 7.96507 6.58876 8.00957 6.58876C8.05407 6.58876 8.09557 6.56976 8.12507 6.53626L13.3871 0.555257C13.6511 0.240257 14.0651 0.0932565 14.4691 0.170756C14.8731 0.248256 15.2026 0.538757 15.3311 0.928757C15.4596 1.31926 15.3666 1.74876 15.0881 2.05076L9.07257 8.88826C8.80407 9.19376 8.41707 9.36876 8.01007 9.36926L8.00957 9.36976Z" fill="#55576F"/>
</svg>
