<svg width="40" height="44" viewBox="0 0 40 44" fill="none" xmlns="http://www.w3.org/2000/svg">
<path d="M20.5 25.5C22.433 25.5 24 23.933 24 22C24 20.067 22.433 18.5 20.5 18.5C18.567 18.5 17 20.067 17 22C17 23.933 18.567 25.5 20.5 25.5Z" stroke="#3C4196" stroke-miterlimit="10"/>
<path d="M27.22 5.8622C29.53 9.7143 31 15.5138 31 22C31 33.5983 26.2988 43 20.5 43C14.7012 43 10 33.5983 10 22C10 10.4017 14.7012 1 20.5 1C22.246 1.06582 23.8947 1.82096 25.085 3.1" stroke="#3C4196" stroke-miterlimit="10"/>
<path d="M1.5734 14.7642C1.49969 13.6275 1.75667 12.4939 2.3133 11.5001C5.2127 6.47759 15.7057 7.10759 25.75 12.9064C31.3871 16.1614 35.6851 20.3523 37.86 24.2912" stroke="#3C4196" stroke-miterlimit="10"/>
<path d="M38.7476 26.1892C39.652 28.5573 39.694 30.7546 38.6867 32.4997C35.7873 37.5215 25.2943 36.8915 15.25 31.0927C8.208 27.0271 3.2562 21.5027 1.9248 16.8281" stroke="#3C4196" stroke-miterlimit="10"/>
<path d="M7.28969 35.6267C5.00979 35.1738 3.25839 34.1378 2.31339 32.5005C-0.586008 27.4787 5.20579 18.7063 15.2501 12.9075C25.2944 7.10868 35.7874 6.47868 38.6868 11.5005C41.5862 16.5223 35.7944 25.2947 25.7501 31.0942C20.5001 34.1266 15.1227 35.745 10.775 35.8815" stroke="#3C4196" stroke-miterlimit="10"/>
<path d="M9.02441 37.6016C9.99091 37.6016 10.7744 36.8181 10.7744 35.8516C10.7744 34.8851 9.99091 34.1016 9.02441 34.1016C8.05792 34.1016 7.27441 34.8851 7.27441 35.8516C7.27441 36.8181 8.05792 37.6016 9.02441 37.6016Z" stroke="#3C4196" stroke-miterlimit="10"/>
<path d="M26.2393 6.16211C27.2058 6.16211 27.9893 5.37861 27.9893 4.41211C27.9893 3.44561 27.2058 2.66211 26.2393 2.66211C25.2728 2.66211 24.4893 3.44561 24.4893 4.41211C24.4893 5.37861 25.2728 6.16211 26.2393 6.16211Z" stroke="#3C4196" stroke-miterlimit="10"/>
<path d="M38.3352 26.2738C38.9151 26.2738 39.3852 25.8037 39.3852 25.2238C39.3852 24.6439 38.9151 24.1738 38.3352 24.1738C37.7553 24.1738 37.2852 24.6439 37.2852 25.2238C37.2852 25.8037 37.7553 26.2738 38.3352 26.2738Z" stroke="#3C4196" stroke-miterlimit="10"/>
<path d="M1.68965 16.8568C2.26955 16.8568 2.73965 16.3867 2.73965 15.8068C2.73965 15.2269 2.26955 14.7568 1.68965 14.7568C1.10975 14.7568 0.639648 15.2269 0.639648 15.8068C0.639648 16.3867 1.10975 16.8568 1.68965 16.8568Z" stroke="#3C4196" stroke-miterlimit="10"/>
</svg>
