<svg width="25" height="25" viewBox="0 0 25 25" fill="none" xmlns="http://www.w3.org/2000/svg">
<path d="M20.2552 5.98877C19.1952 4.92597 17.7901 4.27731 16.2936 4.15994C14.7971 4.04257 13.308 4.46423 12.0952 5.34877C10.8229 4.4024 9.23924 3.97328 7.66317 4.1478C6.08709 4.32233 4.63569 5.08754 3.60122 6.28935C2.56675 7.49116 2.02607 9.04029 2.08805 10.6248C2.15003 12.2093 2.81006 13.7114 3.93525 14.8288L10.1452 21.0488C10.6653 21.5605 11.3656 21.8474 12.0952 21.8474C12.8249 21.8474 13.5252 21.5605 14.0452 21.0488L20.2552 14.8288C21.4228 13.654 22.0782 12.065 22.0782 10.4088C22.0782 8.75249 21.4228 7.1635 20.2552 5.98877ZM18.8452 13.4488L12.6352 19.6588C12.5646 19.7301 12.4805 19.7868 12.3878 19.8254C12.2951 19.8641 12.1957 19.884 12.0952 19.884C11.9948 19.884 11.8954 19.8641 11.8027 19.8254C11.71 19.7868 11.6259 19.7301 11.5552 19.6588L5.34525 13.4188C4.561 12.6171 4.12186 11.5402 4.12186 10.4188C4.12186 9.2973 4.561 8.22042 5.34525 7.41877C6.1444 6.62976 7.22222 6.18734 8.34525 6.18734C9.46827 6.18734 10.5461 6.62976 11.3452 7.41877C11.4382 7.5125 11.5488 7.58689 11.6707 7.63766C11.7925 7.68843 11.9232 7.71457 12.0552 7.71457C12.1873 7.71457 12.318 7.68843 12.4398 7.63766C12.5617 7.58689 12.6723 7.5125 12.7652 7.41877C13.5644 6.62976 14.6422 6.18734 15.7652 6.18734C16.8883 6.18734 17.9661 6.62976 18.7652 7.41877C19.5603 8.20992 20.0138 9.28096 20.0288 10.4025C20.0437 11.5239 19.6189 12.6067 18.8452 13.4188V13.4488Z" fill="#2E2F3C"/>
</svg>
