<svg width="146" height="18" viewBox="0 0 146 18" fill="none" xmlns="http://www.w3.org/2000/svg">
<path d="M9.99685 3.79512C9.6616 3.34301 9.22286 2.97785 8.71741 2.73024C8.15357 2.44785 7.52994 2.30559 6.89941 2.31552C6.53204 2.31582 6.16629 2.36423 5.81149 2.45952C5.45231 2.55362 5.11371 2.71352 4.81285 2.93112C4.5151 3.14531 4.26665 3.42076 4.08421 3.73896C3.88892 4.09239 3.79172 4.49163 3.80269 4.89528C3.78914 5.2746 3.87845 5.65052 4.06117 5.9832C4.23601 6.27768 4.47346 6.53011 4.75669 6.72264C5.07675 6.93903 5.42389 7.11235 5.78917 7.23816C6.18589 7.38216 6.60853 7.52616 7.05709 7.6752C7.59517 7.83936 8.14093 8.02632 8.69437 8.23608C9.23375 8.4378 9.74054 8.71776 10.1984 9.06696C10.6511 9.41577 11.0256 9.85554 11.2979 10.3579C11.6035 10.9662 11.7501 11.6419 11.7241 12.3221C11.7425 13.0627 11.5848 13.797 11.264 14.4648C10.9732 15.0511 10.555 15.565 10.04 15.9689C9.51502 16.3741 8.9172 16.675 8.27893 16.8552C7.6116 17.0482 6.92017 17.1452 6.22549 17.1432C5.2279 17.1437 4.24023 16.9452 3.32029 16.5593C2.41162 16.1907 1.6123 15.5958 0.998291 14.8313L2.72629 13.3726C3.1227 13.9483 3.6531 14.419 4.27183 14.7443C4.89055 15.0695 5.57906 15.2394 6.27805 15.2395C6.65746 15.2391 7.03498 15.186 7.39981 15.0818C7.76722 14.9803 8.11314 14.813 8.42077 14.5879C8.72733 14.3637 8.98321 14.0774 9.17173 13.7477C9.37403 13.3722 9.4734 12.9499 9.45973 12.5237C9.47473 12.103 9.36985 11.6868 9.15733 11.3234C8.94764 10.9935 8.6679 10.7138 8.33797 10.5041C7.96262 10.2653 7.55957 10.073 7.13773 9.93168C6.68053 9.774 6.20173 9.61488 5.69053 9.44856C5.17939 9.29865 4.67824 9.11661 4.19005 8.90352C3.70944 8.6951 3.26324 8.41495 2.86669 8.07264C2.4701 7.72661 2.14903 7.3026 1.92349 6.82704C1.66666 6.24846 1.5436 5.61942 1.56349 4.98672C1.54377 4.2756 1.71032 3.57168 2.04661 2.9448C2.35777 2.38798 2.78681 1.90586 3.30373 1.53216C3.83101 1.15279 4.42432 0.874929 5.05333 0.712797C5.69359 0.541847 6.35337 0.454959 7.01605 0.454319C7.9076 0.447204 8.79189 0.615011 9.61885 0.948239C10.3624 1.23409 11.0305 1.68684 11.5715 2.2716L9.99685 3.79512Z" fill="#2E2F3C"/>
<path d="M17.0874 14.7676H24.178V16.7411H14.8662V0.856445H17.0874V14.7676Z" fill="#2E2F3C"/>
<path d="M28.5518 14.7676H36.8534V16.7411H26.3306V0.856445H36.5164V2.80908H28.5518V7.56684H36.0455V9.47412H28.5518V14.7676Z" fill="#2E2F3C"/>
<path d="M42.0361 14.7676H50.3378V16.7411H39.8149V0.856445H50.0008V2.80908H42.0361V7.56684H49.5299V9.47412H42.0361V14.7676Z" fill="#2E2F3C"/>
<path d="M53.3005 0.856904H58.1476C58.9327 0.849306 59.716 0.936087 60.4804 1.11538C61.1249 1.26161 61.7346 1.53236 62.2753 1.91242C62.7645 2.26636 63.158 2.73649 63.4201 3.28042C63.7048 3.90657 63.8427 4.58945 63.8233 5.27698C63.8423 5.98271 63.6925 6.68277 63.3863 7.3189C63.1047 7.87634 62.6884 8.3547 62.1753 8.71066C61.6167 9.08849 60.9926 9.3588 60.3349 9.5077C59.5799 9.68522 58.8065 9.772 58.0309 9.76618H55.5189V16.7444H53.3005V0.856904ZM55.5217 7.87906H57.8797C58.3809 7.88351 58.8812 7.83525 59.3723 7.73506C59.7877 7.65326 60.1863 7.50159 60.5509 7.2865C60.8717 7.09367 61.135 6.81846 61.3134 6.48946C61.5034 6.11477 61.5963 5.69835 61.5834 5.27842C61.5977 4.86045 61.5006 4.44619 61.3019 4.07818C61.1165 3.75744 60.8545 3.48757 60.5394 3.29266C60.1847 3.07815 59.7922 2.93348 59.3831 2.86642C58.9015 2.78166 58.4133 2.74021 57.9244 2.74258H55.5232L55.5217 7.87906Z" fill="#2E2F3C"/>
<path d="M82.6713 8.77622C82.6848 9.93306 82.4677 11.081 82.0327 12.153C81.6288 13.1443 81.0299 14.0443 80.2716 14.7997C79.5077 15.5505 78.5995 16.1383 77.6018 16.5277C75.4372 17.3494 73.0466 17.3494 70.882 16.5277C69.8864 16.1399 68.9812 15.5514 68.2229 14.7986C67.4646 14.0458 66.8693 13.1451 66.4742 12.1523C66.0458 11.0787 65.8325 9.93136 65.8464 8.7755C65.8322 7.61215 66.0455 6.45724 66.4742 5.37566C66.8681 4.38806 67.4641 3.49368 68.2238 2.74983C68.9886 2.01423 69.8923 1.43831 70.882 1.05566C73.049 0.24707 75.4349 0.24707 77.6018 1.05566C78.5964 1.4355 79.5044 2.01166 80.2716 2.74983C81.0327 3.49491 81.6321 4.38875 82.0327 5.37566C82.4689 6.45563 82.686 7.61157 82.6713 8.77622V8.77622ZM80.2701 8.77622C80.2746 7.93857 80.1303 7.10678 79.8439 6.31959C79.5731 5.57188 79.1621 4.88274 78.6328 4.28918C78.1041 3.70193 77.4583 3.23178 76.7371 2.90894C75.9488 2.57637 75.1018 2.40503 74.2462 2.40503C73.3907 2.40503 72.5437 2.57637 71.7554 2.90894C71.0364 3.23 70.3941 3.70052 69.8712 4.28918C69.3475 4.8849 68.9404 5.57363 68.6709 6.31959C68.3838 7.10658 68.2394 7.9385 68.2447 8.77622C68.2386 9.62527 68.3829 10.4687 68.6709 11.2674C68.9382 12.0168 69.3497 12.7065 69.882 13.2978C70.4087 13.8766 71.0505 14.3391 71.7662 14.6557C72.5445 14.9937 73.3859 15.1621 74.2344 15.1497C75.0902 15.1615 75.939 14.9932 76.7256 14.6557C77.4503 14.3433 78.1004 13.8804 78.6328 13.2978C79.1651 12.7065 79.5765 12.0168 79.8439 11.2674C80.1317 10.4687 80.2757 9.62523 80.2694 8.77622H80.2701Z" fill="#2E2F3C"/>
<path d="M85.7002 0.856904H90.5472C91.3324 0.849306 92.1156 0.936087 92.88 1.11538C93.5246 1.26161 94.1343 1.53236 94.675 1.91242C95.1642 2.26636 95.5576 2.73649 95.8198 3.28042C96.1044 3.90657 96.2423 4.58945 96.223 5.27698C96.242 5.98271 96.0921 6.68277 95.786 7.3189C95.5043 7.87632 95.0881 8.35468 94.5749 8.71066C94.0164 9.08848 93.3923 9.35878 92.7346 9.5077C91.9813 9.68487 91.2095 9.77164 90.4357 9.76618H87.9221V16.7444H85.7002V0.856904ZM87.9214 7.87906H90.2772C90.7784 7.88351 91.2787 7.83525 91.7698 7.73506C92.1851 7.653 92.5836 7.50134 92.9484 7.2865C93.2692 7.09367 93.5325 6.81846 93.7109 6.48946C93.901 6.11477 93.9938 5.69835 93.9809 5.27842C93.995 4.86074 93.8986 4.44673 93.7016 4.07818C93.5161 3.75744 93.2542 3.48757 92.9391 3.29266C92.5844 3.07814 92.1919 2.93346 91.7828 2.86642C91.3012 2.78165 90.813 2.74021 90.324 2.74258H87.925V7.8769L87.9214 7.87906Z" fill="#2E2F3C"/>
<path d="M115.07 8.77622C115.084 9.93306 114.867 11.081 114.432 12.153C114.028 13.1443 113.429 14.0443 112.67 14.7997C111.907 15.5505 110.998 16.1383 110.001 16.5277C107.836 17.3494 105.446 17.3494 103.281 16.5277C102.285 16.1399 101.38 15.5514 100.622 14.7986C99.8635 14.0458 99.2683 13.1451 98.8731 12.1523C98.4447 11.0787 98.2314 9.93136 98.2453 8.7755C98.2312 7.61215 98.4445 6.45725 98.8731 5.37566C99.2676 4.38833 99.8634 3.49404 100.623 2.74983C101.388 2.01423 102.291 1.43831 103.281 1.05566C105.448 0.24707 107.834 0.24707 110.001 1.05566C110.995 1.43611 111.903 2.0122 112.67 2.74983C113.432 3.49491 114.031 4.38875 114.432 5.37566C114.868 6.45563 115.085 7.61157 115.07 8.77622V8.77622ZM112.669 8.77622C112.674 7.93857 112.529 7.10677 112.243 6.31959C111.972 5.57186 111.561 4.88272 111.032 4.28918C110.503 3.70192 109.857 3.23177 109.136 2.90894C108.348 2.57637 107.501 2.40503 106.645 2.40503C105.79 2.40503 104.943 2.57637 104.154 2.90894C103.435 3.23 102.793 3.70052 102.27 4.28918C101.746 4.8849 101.339 5.57363 101.07 6.31959C100.783 7.10658 100.638 7.9385 100.644 8.77622C100.638 9.62527 100.782 10.4687 101.07 11.2674C101.337 12.0168 101.749 12.7065 102.281 13.2978C102.808 13.8766 103.449 14.3391 104.165 14.6557C104.943 14.9937 105.785 15.1621 106.633 15.1497C107.489 15.1615 108.338 14.9932 109.124 14.6557C109.849 14.3433 110.499 13.8804 111.032 13.2978C111.564 12.7065 111.975 12.0168 112.243 11.2674C112.53 10.4686 112.674 9.62515 112.667 8.77622H112.669Z" fill="#2E2F3C"/>
<path d="M120.319 14.7676H127.41V16.7411H118.098V0.856445H120.319V14.7676Z" fill="#2E2F3C"/>
<path d="M131.918 2.2694C131.923 2.45018 131.888 2.62984 131.817 2.79618C131.746 2.96253 131.641 3.11167 131.507 3.23348C131.24 3.4856 130.884 3.62287 130.517 3.6158C130.336 3.6198 130.156 3.58716 129.988 3.51985C129.82 3.45255 129.667 3.35196 129.538 3.22412C129.409 3.10137 129.307 2.95311 129.238 2.78876C129.169 2.6244 129.136 2.44754 129.139 2.2694C129.134 2.08798 129.168 1.90761 129.236 1.73969C129.305 1.57176 129.408 1.41993 129.538 1.2938C129.667 1.16577 129.819 1.06495 129.988 0.997402C130.156 0.929849 130.336 0.896948 130.517 0.900675C130.7 0.897634 130.881 0.930807 131.051 0.998278C131.221 1.06575 131.376 1.16618 131.507 1.2938C131.64 1.41815 131.746 1.56938 131.817 1.73754C131.888 1.9057 131.922 2.08697 131.918 2.2694V2.2694ZM131.582 16.7414H129.473V6.107H131.582V16.7414Z" fill="#2E2F3C"/>
<path d="M143.272 3.79569C142.937 3.34362 142.498 2.97847 141.993 2.73081C141.429 2.44842 140.805 2.30616 140.175 2.31609C139.807 2.31639 139.442 2.3648 139.087 2.46009C138.728 2.55419 138.389 2.71409 138.088 2.93169C137.79 3.14624 137.542 3.42159 137.358 3.73953C137.164 4.09315 137.067 4.49239 137.079 4.89585C137.065 5.27517 137.155 5.65109 137.337 5.98377C137.512 6.27826 137.75 6.5307 138.033 6.72321C138.353 6.93928 138.7 7.11259 139.065 7.23873C139.462 7.38273 139.885 7.52673 140.333 7.67577C140.871 7.83993 141.417 8.02689 141.971 8.23665C142.51 8.43837 143.017 8.71832 143.475 9.06753C143.927 9.41634 144.302 9.8561 144.574 10.3585C144.88 10.9667 145.026 11.6424 145 12.3226C145.018 13.0632 144.861 13.7975 144.54 14.4654C144.249 15.0517 143.831 15.5655 143.316 15.9694C142.791 16.3747 142.193 16.6755 141.555 16.8558C140.888 17.0488 140.196 17.1458 139.502 17.1438C138.504 17.1442 137.516 16.9457 136.596 16.5598C135.688 16.1912 134.888 15.5964 134.274 14.8318L136.002 13.3731C136.399 13.9472 136.929 14.4165 137.546 14.7408C138.164 15.0651 138.851 15.2347 139.548 15.235C139.928 15.2346 140.305 15.1815 140.67 15.0774C141.038 14.9759 141.384 14.8085 141.691 14.5834C141.998 14.3592 142.254 14.0729 142.442 13.7432C142.644 13.3678 142.744 12.9455 142.73 12.5192C142.745 12.0985 142.64 11.6823 142.428 11.319C142.218 10.989 141.938 10.7093 141.608 10.4996C141.233 10.2608 140.83 10.0686 140.409 9.92721C139.952 9.76953 139.473 9.61041 138.962 9.44409C138.449 9.29291 137.947 9.10942 137.458 8.89473C136.977 8.68632 136.531 8.40617 136.134 8.06385C135.738 7.71783 135.416 7.29382 135.191 6.81825C134.934 6.23967 134.811 5.61063 134.831 4.97793C134.811 4.26681 134.978 3.56289 135.314 2.93601C135.625 2.37925 136.054 1.89713 136.571 1.52337C137.098 1.144 137.691 0.866143 138.32 0.70401C138.961 0.532977 139.621 0.446086 140.284 0.44553C141.176 0.438415 142.06 0.606222 142.887 0.93945C143.631 1.2253 144.299 1.67805 144.84 2.26281L143.272 3.79569Z" fill="#2E2F3C"/>
</svg>
