<svg width="38" height="44" viewBox="0 0 38 44" fill="none" xmlns="http://www.w3.org/2000/svg">
<path d="M14.7935 17.9346C15.8178 17.9346 16.832 18.1363 17.7784 18.5283C18.7247 18.9203 19.5846 19.4948 20.3089 20.2191C21.0332 20.9434 21.6077 21.8033 21.9997 22.7496C22.3917 23.696 22.5935 24.7103 22.5935 25.7346V29.5746" stroke="#3C4196" stroke-miterlimit="10" stroke-linecap="round"/>
<path d="M18.7956 37.0045C18.5064 36.9937 18.2162 36.9759 17.925 36.9511C13.875 36.5979 10.0639 34.8841 7.11204 32.0888C4.16022 29.2935 2.24159 25.5812 1.66853 21.5564C1.09547 17.5317 1.90174 13.4314 3.95605 9.92332C6.01037 6.4152 9.19175 3.70581 12.9822 2.23628C13.2078 2.146 13.4555 2.12634 13.6925 2.17991C13.9296 2.23347 14.1447 2.35774 14.3096 2.53625C14.4745 2.71477 14.5812 2.93914 14.6158 3.17967C14.6504 3.42019 14.6111 3.66555 14.5032 3.88327C13.0352 6.79884 12.5578 10.1136 13.1435 13.3249C13.7291 16.5362 15.3459 19.469 17.7486 21.6787C18.1104 21.993 18.3935 22.3877 18.5754 22.8311C18.7572 23.2746 18.8326 23.7544 18.7956 24.2323V40.4923C18.7956 41.1288 19.0485 41.7392 19.4986 42.1893C19.9486 42.6394 20.5591 42.8923 21.1956 42.8923H23.973C24.7687 42.8923 25.5317 42.5762 26.0943 42.0136C26.6569 41.451 26.973 40.6879 26.973 39.8923V32.2183" stroke="#3C4196" stroke-miterlimit="10" stroke-linecap="round"/>
<path d="M31.02 25.3105C32.2718 25.0457 33.4842 24.6206 34.6272 24.0456C34.845 23.9382 35.0903 23.8994 35.3307 23.9344C35.571 23.9693 35.7951 24.0764 35.9733 24.2414C36.1515 24.4064 36.2755 24.6216 36.3288 24.8585C36.3821 25.0955 36.3622 25.343 36.2718 25.5685C35.3988 27.8018 34.0879 29.8379 32.4162 31.5571" stroke="#3C4196" stroke-miterlimit="10" stroke-linecap="round"/>
<path d="M21.8354 22.377H25.2146C27.1242 22.377 28.9556 23.1355 30.3058 24.4858C31.6561 25.836 32.4146 27.6674 32.4146 29.5769V35.6304C32.4146 36.5851 32.0354 37.5008 31.3602 38.1759C30.6851 38.8511 29.7694 39.2304 28.8147 39.2304H26.9733" stroke="#3C4196" stroke-miterlimit="10" stroke-linecap="round"/>
<path d="M24.1548 11.834H28.9548L24.1548 16.634H28.9548" stroke="#3C4196" stroke-linecap="round" stroke-linejoin="round"/>
<path d="M32.6958 6.41699H37.4958L32.6958 11.217H37.4958" stroke="#3C4196" stroke-linecap="round" stroke-linejoin="round"/>
<path d="M19.2134 1H24.0134L19.2134 5.8H24.0134" stroke="#3C4196" stroke-linecap="round" stroke-linejoin="round"/>
</svg>
