<svg width="80" height="26" viewBox="0 0 80 26" fill="none" xmlns="http://www.w3.org/2000/svg">
<path d="M44.3832 22.6815C42.719 20.8916 41.8867 18.3891 41.8867 15.174C41.8867 11.982 42.719 9.49659 44.3832 7.71771C46.0474 5.93884 48.4416 5.03812 51.566 5.01556C52.5342 5.00349 53.5014 5.0777 54.4565 5.23731C55.3267 5.40332 56.1797 5.64941 57.0046 5.97244V10.7964C56.2392 10.4357 55.4366 10.1604 54.6109 9.97563C53.8003 9.81061 52.9746 9.73049 52.1475 9.73659C50.4828 9.75915 49.2749 10.2322 48.5232 11.1557C47.6989 12.3141 47.2998 13.7216 47.394 15.1402C47.394 18.8362 48.9332 20.6945 52.0114 20.7152C53.7526 20.6638 55.4456 20.131 56.9023 19.1758L56.9139 24.3382C55.2218 25.0524 53.4019 25.4138 51.5653 25.4002C48.4414 25.3772 46.0474 24.4709 44.3832 22.6815ZM23.0933 23.3345C21.8505 22.0688 21.2293 20.034 21.2293 17.2304V5.73411H26.496V17.2304C26.424 18.1395 26.6992 19.0423 27.266 19.7568C27.616 20.0655 28.0258 20.2987 28.4701 20.4416C28.9143 20.5846 29.3835 20.6343 29.8478 20.5877C31.477 20.5108 33.027 19.8623 34.2255 18.756V5.73411H39.4923V24.8242H34.2255V23.1992C32.6811 24.4947 30.7344 25.2139 28.7186 25.2339C26.2106 25.2339 24.3353 24.6008 23.0926 23.3345H23.0933ZM72.8499 24.9905L67.3093 17.9792L65.5993 19.7568V24.9898H60.3325V0.200195H65.5993V13.1566L72.0635 6.31659H78.4246L70.7637 14.3532L79.1432 24.9898L72.8499 24.9905ZM8.10791 24.9905V4.891H0.856934V0.205235H20.8306V4.891H13.58V24.9898L8.10791 24.9905Z" fill="#2E2F3C"/>
</svg>
