<svg width="25" height="25" viewBox="0 0 25 25" fill="none" xmlns="http://www.w3.org/2000/svg">
<path d="M21.0952 16.9775H7.09521C6.83 16.9775 6.57564 16.8722 6.38811 16.6846C6.20057 16.4971 6.09521 16.2428 6.09521 15.9775C6.09521 15.7123 6.20057 15.458 6.38811 15.2704C6.57564 15.0829 6.83 14.9775 7.09521 14.9775H17.5352C18.2039 14.9776 18.8534 14.7542 19.3806 14.343C19.9078 13.9317 20.2825 13.3561 20.4452 12.7075L22.0952 6.21754C22.1327 6.06995 22.1359 5.91575 22.1047 5.76671C22.0735 5.61767 22.0087 5.47772 21.9152 5.35754C21.818 5.23427 21.6931 5.13564 21.5506 5.06962C21.4081 5.0036 21.2521 4.97206 21.0952 4.97754H6.85522C6.6489 4.39399 6.26714 3.88854 5.76228 3.53048C5.25742 3.17242 4.65416 2.97928 4.03521 2.97754H3.09521C2.83 2.97754 2.57564 3.0829 2.38811 3.27043C2.20057 3.45797 2.09521 3.71232 2.09521 3.97754C2.09521 4.24276 2.20057 4.49711 2.38811 4.68465C2.57564 4.87218 2.83 4.97754 3.09521 4.97754H4.03521C4.26365 4.97088 4.48747 5.04267 4.66942 5.18095C4.85137 5.31923 4.98046 5.51566 5.03521 5.73754L5.09521 6.21754L6.82521 12.9775C6.02957 13.0133 5.28073 13.3638 4.74343 13.9517C4.20614 14.5396 3.92441 15.3169 3.96021 16.1125C3.99602 16.9082 4.34643 17.657 4.93435 18.1943C5.52228 18.7316 6.29957 19.0133 7.09521 18.9775H7.27521C7.11075 19.4307 7.0579 19.9168 7.12115 20.3946C7.18439 20.8725 7.36186 21.3281 7.63853 21.7229C7.91521 22.1176 8.28293 22.4399 8.71057 22.6624C9.1382 22.8849 9.61316 23.0011 10.0952 23.0011C10.5773 23.0011 11.0522 22.8849 11.4799 22.6624C11.9075 22.4399 12.2752 22.1176 12.5519 21.7229C12.8286 21.3281 13.006 20.8725 13.0693 20.3946C13.1325 19.9168 13.0797 19.4307 12.9152 18.9775H15.2752C15.1108 19.4307 15.0579 19.9168 15.1211 20.3946C15.1844 20.8725 15.3619 21.3281 15.6385 21.7229C15.9152 22.1176 16.2829 22.4399 16.7106 22.6624C17.1382 22.8849 17.6132 23.0011 18.0952 23.0011C18.5773 23.0011 19.0522 22.8849 19.4799 22.6624C19.9075 22.4399 20.2752 22.1176 20.5519 21.7229C20.8286 21.3281 21.006 20.8725 21.0693 20.3946C21.1325 19.9168 21.0797 19.4307 20.9152 18.9775H21.0952C21.3604 18.9775 21.6148 18.8722 21.8023 18.6846C21.9899 18.4971 22.0952 18.2428 22.0952 17.9775C22.0952 17.7123 21.9899 17.458 21.8023 17.2704C21.6148 17.0829 21.3604 16.9775 21.0952 16.9775ZM19.8152 6.97754L18.5052 12.2175C18.4505 12.4394 18.3214 12.6358 18.1394 12.7741C17.9575 12.9124 17.7336 12.9842 17.5052 12.9775H8.87521L7.37522 6.97754H19.8152ZM10.0952 20.9775C9.89743 20.9775 9.70409 20.9189 9.53964 20.809C9.3752 20.6991 9.24702 20.5429 9.17134 20.3602C9.09565 20.1775 9.07584 19.9764 9.11443 19.7824C9.15301 19.5885 9.24826 19.4103 9.38811 19.2704C9.52796 19.1306 9.70614 19.0353 9.90012 18.9968C10.0941 18.9582 10.2952 18.978 10.4779 19.0537C10.6606 19.1293 10.8168 19.2575 10.9267 19.422C11.0366 19.5864 11.0952 19.7798 11.0952 19.9775C11.0952 20.2428 10.9899 20.4971 10.8023 20.6846C10.6148 20.8722 10.3604 20.9775 10.0952 20.9775ZM18.0952 20.9775C17.8974 20.9775 17.7041 20.9189 17.5396 20.809C17.3752 20.6991 17.247 20.5429 17.1713 20.3602C17.0956 20.1775 17.0758 19.9764 17.1144 19.7824C17.153 19.5885 17.2483 19.4103 17.3881 19.2704C17.528 19.1306 17.7061 19.0353 17.9001 18.9968C18.0941 18.9582 18.2952 18.978 18.4779 19.0537C18.6606 19.1293 18.8168 19.2575 18.9267 19.422C19.0366 19.5864 19.0952 19.7798 19.0952 19.9775C19.0952 20.2428 18.9899 20.4971 18.8023 20.6846C18.6148 20.8722 18.3604 20.9775 18.0952 20.9775Z" fill="#2E2F3C"/>
</svg>
