<svg width="18" height="17" viewBox="0 0 18 17" fill="none" xmlns="http://www.w3.org/2000/svg">
<path d="M10.4099 8.98847L16.7099 2.69847C16.8982 2.51016 17.004 2.25477 17.004 1.98847C17.004 1.72217 16.8982 1.46677 16.7099 1.27847C16.5216 1.09016 16.2662 0.984375 15.9999 0.984375C15.7336 0.984375 15.4782 1.09016 15.2899 1.27847L8.99994 7.57847L2.70994 1.27847C2.52164 1.09016 2.26624 0.984375 1.99994 0.984375C1.73364 0.984375 1.47824 1.09016 1.28994 1.27847C1.10164 1.46677 0.995847 1.72217 0.995847 1.98847C0.995847 2.25477 1.10164 2.51016 1.28994 2.69847L7.58994 8.98847L1.28994 15.2785C1.19621 15.3714 1.12182 15.482 1.07105 15.6039C1.02028 15.7257 0.994141 15.8565 0.994141 15.9885C0.994141 16.1205 1.02028 16.2512 1.07105 16.373C1.12182 16.4949 1.19621 16.6055 1.28994 16.6985C1.3829 16.7922 1.4935 16.8666 1.61536 16.9174C1.73722 16.9681 1.86793 16.9943 1.99994 16.9943C2.13195 16.9943 2.26266 16.9681 2.38452 16.9174C2.50638 16.8666 2.61698 16.7922 2.70994 16.6985L8.99994 10.3985L15.2899 16.6985C15.3829 16.7922 15.4935 16.8666 15.6154 16.9174C15.7372 16.9681 15.8679 16.9943 15.9999 16.9943C16.132 16.9943 16.2627 16.9681 16.3845 16.9174C16.5064 16.8666 16.617 16.7922 16.7099 16.6985C16.8037 16.6055 16.8781 16.4949 16.9288 16.373C16.9796 16.2512 17.0057 16.1205 17.0057 15.9885C17.0057 15.8565 16.9796 15.7257 16.9288 15.6039C16.8781 15.482 16.8037 15.3714 16.7099 15.2785L10.4099 8.98847Z" fill="black"/>
</svg>
