<svg width="130" height="31" viewBox="0 0 130 31" fill="none" xmlns="http://www.w3.org/2000/svg">
<path d="M109.233 30.9574C108.958 30.8911 108.682 30.8278 108.407 30.7579C107.492 30.5627 106.661 30.0835 106.033 29.3885C105.405 28.6935 105.013 27.8182 104.911 26.8872C104.834 26.42 104.796 25.9473 104.797 25.4739C104.785 23.635 104.792 21.7954 104.792 19.9565V19.4158H109.256C109.256 19.5987 109.256 19.7664 109.256 19.9335C109.267 21.5851 109.27 23.2375 109.297 24.8885C109.308 25.1893 109.367 25.4863 109.472 25.7683C109.565 26.0444 109.749 26.2806 109.994 26.4383C110.239 26.596 110.53 26.6657 110.82 26.6359C111.106 26.6591 111.39 26.5743 111.616 26.3982C111.843 26.2222 111.995 25.9677 112.044 25.6848C112.384 23.4996 112.532 21.3187 111.082 19.4064C109.945 17.9059 108.809 16.4019 107.617 14.9424C105.868 12.9009 104.944 10.2803 105.025 7.59338C104.964 6.38775 105.074 5.17954 105.353 4.0049C105.584 3.156 106.067 2.39694 106.738 1.82725C107.409 1.25756 108.236 0.903825 109.111 0.81242C110.577 0.559821 112.078 0.590862 113.532 0.90386C114.387 1.06199 115.158 1.51656 115.71 2.1875C116.262 2.85843 116.56 3.70268 116.551 4.57154C116.655 6.10226 116.623 7.64306 116.636 9.17954C116.633 9.23732 116.617 9.29355 116.587 9.3436C116.558 9.39366 116.518 9.43613 116.469 9.46754C115.08 9.87434 113.687 10.2639 112.242 10.6721C112.242 9.28106 112.242 7.94834 112.242 6.6149C112.246 6.31359 112.227 6.01239 112.183 5.71418C112.175 5.55807 112.135 5.40535 112.064 5.26591C111.994 5.12648 111.894 5.00345 111.773 4.90481C111.652 4.80617 111.511 4.73412 111.36 4.69332C111.209 4.65253 111.052 4.64391 110.897 4.66802C110.76 4.65247 110.62 4.66444 110.488 4.70323C110.355 4.74201 110.231 4.80684 110.123 4.89395C110.016 4.98105 109.926 5.08869 109.861 5.21059C109.795 5.3325 109.754 5.46623 109.741 5.60402C109.499 7.27802 109.453 8.95994 110.481 10.4223C111.548 11.9343 112.702 13.3901 113.815 14.8726C114.35 15.5854 114.895 16.291 115.404 17.0218C116.286 18.2571 116.818 19.7075 116.945 21.2201C117.129 22.9074 117.091 24.6115 116.832 26.2889C116.4 28.6332 115.07 30.5254 112.287 30.8969C112.246 30.9099 112.208 30.9293 112.173 30.9545L109.233 30.9574Z" fill="#2E2F3C"/>
<path d="M129.8 5.25986C128.967 5.27498 128.135 5.29226 127.303 5.3045C126.943 5.31026 126.589 5.3045 126.182 5.3045V30.6406H121.695V5.28434H118.087V0.975859H118.575C122.145 0.975859 125.714 0.975859 129.284 0.975859C129.456 0.975859 129.628 0.958579 129.8 0.949219V5.25986Z" fill="#2E2F3C"/>
<path d="M64.9704 30.6282V0.976446H65.4521C67.6841 0.976446 69.9161 0.966366 72.1481 0.984366C72.6802 0.987203 73.2108 1.04219 73.7321 1.14853C74.5504 1.264 75.3002 1.66884 75.8456 2.28967C76.391 2.9105 76.6959 3.7062 76.705 4.53253C76.8224 6.82213 76.8058 9.12468 76.7136 11.4157C76.7044 12.0609 76.5104 12.6899 76.1544 13.228C75.7985 13.7662 75.2957 14.191 74.7056 14.452C74.7372 14.5031 74.7466 14.5391 74.7668 14.5477C76.5466 15.2929 77.1183 16.7797 77.1485 18.5394C77.1896 20.8945 77.1975 23.2518 77.137 25.6062C77.11 26.4228 76.9518 27.2296 76.6683 27.9959C76.3822 28.8144 75.8367 29.5172 75.1146 29.9973C74.3925 30.4774 73.5334 30.7085 72.6679 30.6556C70.1479 30.7045 67.6279 30.6656 65.1079 30.6635C65.0607 30.6555 65.0142 30.6435 64.969 30.6275L64.9704 30.6282ZM69.4697 26.4184C70.0234 26.4184 70.5259 26.4371 71.0263 26.414C71.219 26.4348 71.4139 26.4127 71.597 26.3493C71.7802 26.2859 71.947 26.1828 72.0857 26.0474C72.2243 25.912 72.3313 25.7476 72.399 25.5661C72.4666 25.3845 72.4933 25.1902 72.4772 24.9971C72.516 22.8457 72.5081 20.6929 72.4815 18.5416C72.5224 18.234 72.4404 17.9228 72.2533 17.6753C72.0663 17.4279 71.7892 17.2641 71.4821 17.2196C70.8112 17.1705 70.1378 17.1642 69.4661 17.2009L69.4697 26.4184ZM69.474 12.6779C69.8988 12.6779 70.2977 12.6779 70.698 12.6779C71.678 12.6779 72.1812 12.3042 72.2446 11.3308C72.3317 10.0009 72.3116 8.66676 72.3166 7.33045C72.3215 6.90039 72.2922 6.47063 72.2288 6.04525C72.2129 5.79681 72.108 5.56242 71.9333 5.38507C71.7586 5.20773 71.5258 5.09932 71.2776 5.07973C70.6843 5.02861 70.0832 5.06821 69.474 5.06821V12.6779Z" fill="#2E2F3C"/>
<path d="M0.199707 30.6704V1.0014C0.347307 0.993479 0.497787 0.978359 0.648987 0.978359C2.92419 0.978359 5.20011 0.963239 7.47531 0.982679C8.13064 0.934581 8.7889 1.02076 9.40978 1.23593C10.0307 1.4511 10.6011 1.79073 11.0861 2.23404C11.843 3.07481 12.2863 4.15115 12.3411 5.28108C12.4014 5.83772 12.4297 6.39736 12.426 6.95724C12.4318 12.8922 12.4433 18.8272 12.4152 24.7621C12.4083 25.6511 12.2973 26.5362 12.0847 27.3995C11.9109 28.3026 11.4275 29.1168 10.7177 29.7017C10.008 30.2865 9.11643 30.6055 8.19675 30.6035C5.78043 30.6906 3.36051 30.6532 0.941307 30.669C0.700107 30.669 0.459627 30.669 0.199707 30.669L0.199707 30.6704ZM4.75803 5.00964V26.2986C5.37003 26.2986 5.94603 26.3324 6.51555 26.2885C6.77153 26.2834 7.01823 26.1917 7.21541 26.0284C7.41259 25.8651 7.54862 25.6398 7.60131 25.3892C7.70546 24.9727 7.76151 24.5456 7.76835 24.1163C7.77891 18.4729 7.77891 12.8296 7.76835 7.1862C7.75699 6.71374 7.68685 6.24453 7.55955 5.7894C7.51525 5.58138 7.4042 5.39353 7.24329 5.25446C7.08238 5.11538 6.88043 5.0327 6.66819 5.019C6.04251 4.97652 5.41107 5.0082 4.75875 5.0082" fill="#2E2F3C"/>
<path d="M27.1355 30.6523H22.7594C22.5592 28.7983 22.3598 26.9508 22.1582 25.0816H18.8541C18.7653 25.9639 18.6767 26.8449 18.5884 27.7247C18.5013 28.6111 18.4235 29.4981 18.3227 30.3823C18.3112 30.4845 18.1787 30.6544 18.1002 30.6559C16.8359 30.6731 15.5709 30.6681 14.259 30.6681C14.3555 29.8444 14.4441 29.0647 14.5391 28.2856C14.9711 24.7495 15.4031 21.2135 15.8351 17.6779C16.4222 12.8884 17.0099 8.09899 17.5984 3.30955C17.6769 2.66803 17.764 2.02723 17.8245 1.38355C17.8525 1.08907 17.944 0.965226 18.2716 0.968826C19.8124 0.986826 21.3532 0.983226 22.894 0.968826C23.1784 0.968826 23.2936 1.04587 23.3325 1.34179C24.1106 7.38499 24.8949 13.4241 25.6854 19.4591C26.1602 23.0908 26.6375 26.7213 27.1175 30.3506C27.1283 30.4341 27.1298 30.5184 27.1391 30.6494L27.1355 30.6523ZM19.3537 20.5931H21.6578L20.5216 10.1531L20.4402 10.1618L19.3537 20.5931Z" fill="#2E2F3C"/>
<path d="M103.76 30.6699C102.32 30.6699 100.967 30.6655 99.6153 30.6699C99.2963 30.6699 99.333 30.4402 99.3128 30.2537C99.1347 28.5977 98.9598 26.9417 98.7879 25.2857C98.7822 25.2303 98.7685 25.1755 98.7462 25.0553H98.1601C97.3681 25.0553 96.5761 25.0639 95.7841 25.051C95.5256 25.0467 95.4335 25.1388 95.4104 25.3923C95.2664 26.9799 95.1008 28.5653 94.9712 30.1543C94.9396 30.5453 94.8272 30.6936 94.4103 30.6799C93.4023 30.6483 92.3944 30.6699 91.3864 30.6699H90.8564L94.4852 1.00586H99.8853C101.175 10.8756 102.464 20.7339 103.761 30.6699H103.76ZM98.2631 20.6043C97.8801 17.0856 97.502 13.6203 97.124 10.1527H97.0455L95.9569 20.6043H98.2631Z" fill="#2E2F3C"/>
<path d="M79.3472 30.6415V0.947266H89.4084V5.25287H83.8429V13.013H88.5142V17.5685H83.8429V26.1235H89.6597V30.6408L79.3472 30.6415Z" fill="#2E2F3C"/>
<path d="M54.5544 30.6419H50.0184V30.1076C50.0184 26.9324 49.9853 23.7572 50.0328 20.5835C50.0483 19.0635 49.8692 17.5479 49.5 16.0734C48.3156 11.1925 47.1765 6.30081 46.0217 1.41273C45.9957 1.30257 45.9842 1.18881 45.9619 1.05273H50.3345L52.3606 11.7692H52.457L54.3852 1.05849H58.482L57.5172 5.30721C56.5572 9.54849 55.5972 13.7903 54.6372 18.0325C54.5846 18.2701 54.5583 18.5127 54.5587 18.7561C54.5539 22.5342 54.5539 26.3123 54.5587 30.0903L54.5544 30.6419Z" fill="#2E2F3C"/>
<path d="M41.5636 26.0926H47.7938V30.6437H37.1011V1.0625H41.5651L41.5636 26.0926Z" fill="#2E2F3C"/>
<path d="M33.5888 1.00586H29.1125V30.631H33.5888V1.00586Z" fill="#2E2F3C"/>
</svg>
