<svg width="96" height="24" viewBox="0 0 96 24" fill="none" xmlns="http://www.w3.org/2000/svg">
    <path d="M38.5399 6.78263C36.3131 6.78263 34.7894 7.51056 33.6624 9.12961C32.7818 7.709 30.9874 6.78263 29.0362 6.78263C27.3014 6.78263 26.1524 7.2537 25.0044 8.48352V8.40291C25.0044 7.96868 24.8397 7.55223 24.5465 7.24518C24.2533 6.93812 23.8556 6.76562 23.4409 6.76562C23.0263 6.76563 22.6286 6.93812 22.3354 7.24518C22.0422 7.55223 21.8774 7.96868 21.8774 8.40291V21.9183C21.8774 22.3825 22.0535 22.8276 22.3669 23.1558C22.6804 23.4841 23.1055 23.6685 23.5487 23.6685C23.992 23.6685 24.4171 23.4841 24.7305 23.1558C25.0439 22.8276 25.22 22.3825 25.22 21.9183V14.3072C25.22 11.3886 26.2969 10.0291 28.6097 10.0291C30.6632 10.0291 31.7044 11.3647 31.7044 13.9978V21.9183C31.7044 22.3825 31.8805 22.8276 32.1939 23.1558C32.5073 23.4841 32.9324 23.6685 33.3757 23.6685C33.8189 23.6685 34.244 23.4841 34.5574 23.1558C34.8709 22.8276 35.0469 22.3825 35.0469 21.9183V14.2793C35.0469 11.3003 36.0205 10.0291 38.3022 10.0291C40.4443 10.0291 41.5308 11.4781 41.5308 14.3355V21.9183C41.5308 22.3825 41.7069 22.8276 42.0203 23.1558C42.3338 23.4841 42.7589 23.6685 43.2021 23.6685C43.6454 23.6685 44.0705 23.4841 44.3839 23.1558C44.6973 22.8276 44.8734 22.3825 44.8734 21.9183V13.6066C44.8685 9.3347 42.5028 6.78263 38.5399 6.78263Z"
          fill="white"/>
    <path d="M64.5352 6.78263C62.3087 6.78263 60.785 7.51056 59.6581 9.12961C58.7773 7.709 56.9829 6.78263 55.0318 6.78263C53.2969 6.78263 52.148 7.2537 51 8.48352V8.40291C51 7.96868 50.8353 7.55223 50.5421 7.24518C50.2489 6.93812 49.8512 6.76562 49.4365 6.76562C49.0219 6.76563 48.6242 6.93812 48.331 7.24518C48.0378 7.55223 47.873 7.96868 47.873 8.40291V21.9183C47.873 22.3825 48.0491 22.8276 48.3626 23.1558C48.676 23.4841 49.1011 23.6685 49.5443 23.6685C49.9876 23.6685 50.4127 23.4841 50.7261 23.1558C51.0395 22.8276 51.2156 22.3825 51.2156 21.9183V14.3072C51.2156 11.3886 52.2925 10.0291 54.6052 10.0291C56.6588 10.0291 57.6999 11.3647 57.6999 13.9978V21.9183C57.6999 22.3825 57.876 22.8276 58.1894 23.1558C58.5029 23.4841 58.928 23.6685 59.3712 23.6685C59.8145 23.6685 60.2396 23.4841 60.553 23.1558C60.8664 22.8276 61.0425 22.3825 61.0425 21.9183V14.2793C61.0425 11.3003 62.0161 10.0291 64.2977 10.0291C66.4398 10.0291 67.5263 11.4781 67.5263 14.3355V21.9183C67.5263 22.3825 67.7024 22.8276 68.0158 23.1558C68.3293 23.4841 68.7544 23.6685 69.1976 23.6685C69.6409 23.6685 70.066 23.4841 70.3794 23.1558C70.6928 22.8276 70.8689 22.3825 70.8689 21.9183V13.6066C70.8642 9.3347 68.4983 6.78263 64.5352 6.78263Z"
          fill="white"/>
    <path d="M86.0492 8.43257V8.90315C84.88 7.51286 83.1962 6.7832 81.1342 6.7832C76.5492 6.7832 73.092 10.5365 73.092 15.5134C73.092 20.11 76.6716 23.7107 81.2413 23.7107C83.2313 23.7107 84.9412 22.9027 86.0492 21.466V21.9901C86.0492 22.4543 86.2253 22.8995 86.5387 23.2277C86.8521 23.5559 87.2772 23.7403 87.7205 23.7403C88.1637 23.7403 88.5888 23.5559 88.9023 23.2277C89.2157 22.8995 89.3918 22.4543 89.3918 21.9901V8.43232C89.3915 7.99813 89.2266 7.58182 88.9333 7.27496C88.6399 6.9681 88.2422 6.79582 87.8276 6.79602H87.6134C87.4081 6.79592 87.2047 6.83818 87.015 6.92037C86.8253 7.00256 86.6529 7.12308 86.5076 7.27505C86.3624 7.42702 86.2471 7.60746 86.1685 7.80606C86.0898 8.00467 86.0493 8.21756 86.0492 8.43257ZM86.1029 15.2889C86.1029 18.1424 83.91 20.464 81.2145 20.464C78.6228 20.464 76.4332 18.0941 76.4332 15.2889C76.4332 12.389 78.5781 10.0294 81.2145 10.0294C84.0013 10.0294 86.1029 12.2904 86.1029 15.2889Z"
          fill="white"/>
    <path d="M17.2867 18.0299L17.2733 18.0284C16.7072 17.9517 16.2696 18.265 15.6637 18.6977C14.7723 19.3346 13.6629 20.1274 11.5177 20.222C9.4124 20.2467 7.54362 19.5508 6.1082 18.2034C4.81919 16.9933 3.83596 15.2917 3.51159 13.4123C2.90546 9.90211 4.3736 5.60996 8.80768 3.93669C9.67961 3.63349 10.5967 3.4977 11.5147 3.53587C13.186 3.60612 14.7655 4.23792 16.0846 5.36272C16.4152 5.64292 16.8375 5.77615 17.2609 5.73379C17.6843 5.69143 18.0749 5.47686 18.3488 5.13618C18.7544 4.55615 18.8401 3.98599 18.5981 3.41065C17.7999 1.51009 13.8378 0.253161 12.4666 0.0961369C12.0084 0.032099 11.5467 -1.71065e-05 11.0844 6.83561e-09C8.47154 6.83561e-09 5.90153 1.0225 3.86586 2.90605C1.38035 5.20496 -0.028235 8.47559 0.00118897 11.8788C-0.0381215 14.6054 0.898504 17.3182 2.63923 19.5239C4.38937 21.7425 6.752 23.1868 9.29235 23.5913C9.8865 23.6993 10.4884 23.7536 11.0915 23.7535C13.6918 23.7535 16.2032 22.7859 18.1631 21.0291C18.6687 20.6056 18.8537 19.9213 18.6532 19.237C18.45 18.5453 17.9268 18.0831 17.2867 18.0299Z"
          fill="white"/>
    <path d="M15.9572 9.66852C15.7416 9.71147 15.5362 9.79877 15.353 9.92537C15.1698 10.052 15.0124 10.2153 14.8899 10.4061C14.6316 10.807 14.2833 11.1354 13.8755 11.3624C13.4678 11.5894 13.013 11.7082 12.5512 11.7082C12.0894 11.7082 11.6346 11.5894 11.2268 11.3624C10.819 11.1354 10.4707 10.807 10.2124 10.4061C10.0899 10.2154 9.93253 10.052 9.74934 9.92545C9.56614 9.7989 9.36079 9.71165 9.14518 9.66876C9.03975 9.6475 8.93264 9.63677 8.82528 9.63672C8.52229 9.63761 8.22524 9.72474 7.96589 9.88878C7.70655 10.0528 7.49466 10.2876 7.3529 10.568C7.21114 10.8485 7.14485 11.164 7.1611 11.4808C7.17735 11.7976 7.27554 12.1039 7.44517 12.3668C8.00952 13.2414 8.77014 13.9577 9.66035 14.4529C10.5506 14.9481 11.5432 15.2071 12.5512 15.2071C13.5592 15.2071 14.5518 14.9481 15.442 14.4529C16.3322 13.9577 17.0928 13.2414 17.6572 12.3668C17.8421 12.0801 17.9417 11.7425 17.9435 11.3966C17.9453 11.0507 17.8492 10.712 17.6673 10.4233C17.4854 10.1345 17.2259 9.90872 16.9215 9.77435C16.6172 9.63997 16.2816 9.60306 15.9572 9.66827V9.66852Z"
          fill="white"/>
    <path d="M94.7842 20.9572C94.7842 20.6121 94.5592 20.2979 94.0086 20.2979H93.2554V22.5272H93.599V21.6324H93.9853L94.4933 22.5272H94.8916L94.329 21.5814C94.6352 21.4825 94.7842 21.2597 94.7842 20.9572ZM93.5981 21.3329V20.6099H94.0453C94.2826 20.6099 94.4286 20.7278 94.4286 20.9604C94.4286 21.2533 94.2431 21.3329 94.0392 21.3329H93.5981Z"
          fill="white"/>
    <path d="M93.9508 19.3164C93.5459 19.3167 93.1501 19.4426 92.8135 19.6783C92.4769 19.914 92.2146 20.249 92.0598 20.6407C91.9049 21.0325 91.8644 21.4636 91.9434 21.8795C92.0224 22.2954 92.2174 22.6774 92.5037 22.9773C92.79 23.2771 93.1548 23.4814 93.5519 23.5642C93.949 23.6471 94.3607 23.6048 94.7348 23.4427C95.109 23.2806 95.4289 23.006 95.6541 22.6536C95.8792 22.3012 95.9996 21.8867 95.9999 21.4627C95.9994 20.8937 95.7834 20.3482 95.3992 19.9458C95.0151 19.5434 94.4942 19.3171 93.9508 19.3164ZM93.9508 23.2962C93.6044 23.2962 93.2657 23.1886 92.9777 22.9871C92.6896 22.7855 92.4651 22.499 92.3325 22.1639C92.2 21.8287 92.1653 21.4599 92.2329 21.104C92.3005 20.7482 92.4674 20.4214 92.7123 20.1649C92.9573 19.9084 93.2694 19.7337 93.6092 19.663C93.949 19.5922 94.3012 19.6286 94.6213 19.7674C94.9413 19.9063 95.2149 20.1414 95.4073 20.4431C95.5997 20.7448 95.7024 21.0994 95.7024 21.4622C95.7018 21.9485 95.5171 22.4147 95.1887 22.7585C94.8604 23.1023 94.4152 23.2957 93.9508 23.2962Z"
          fill="white"/>
</svg>
