<svg width="32" height="33" viewBox="0 0 32 33" fill="none" xmlns="http://www.w3.org/2000/svg">
<path d="M16 0.5C7.163 0.5 0 7.663 0 16.5C0 25.337 7.163 32.5 16 32.5C24.837 32.5 32 25.337 32 16.5C31.99 7.667 24.833 0.51 16 0.5ZM25.171 25.221C24.981 25.421 24.687 25.483 24.432 25.377C23.051 24.806 20.047 23.713 19.099 23.364C18.968 23.316 18.881 23.191 18.88 23.052V20.733C18.88 20.618 18.94 20.511 19.039 20.45C20.17 19.656 20.824 18.346 20.779 16.965C20.785 16.855 20.846 16.755 20.94 16.698C21.393 16.349 21.637 15.792 21.584 15.222C21.622 14.7 21.426 14.188 21.051 13.823C20.944 13.737 20.901 13.594 20.943 13.463C21.463 12.177 21.628 10.775 21.423 9.403C21.05 7.907 18.911 7.238 16.955 7.238C15.222 7.238 13.344 7.763 12.679 8.926C12.617 9.034 12.5 9.099 12.375 9.093C11.9 9.041 11.426 9.208 11.088 9.546C10.267 10.43 10.731 12.25 11.067 13.463C11.104 13.593 11.059 13.732 10.952 13.815C10.567 14.178 10.366 14.695 10.405 15.223C10.352 15.793 10.595 16.351 11.049 16.7C11.143 16.757 11.203 16.857 11.209 16.967C11.163 18.346 11.815 19.655 12.942 20.451C13.04 20.511 13.101 20.618 13.101 20.734V23.053C13.101 23.193 13.014 23.318 12.882 23.365C11.958 23.706 8.99 24.792 7.573 25.386C7.318 25.493 7.023 25.432 6.832 25.231C2.054 20.228 2.175 12.317 7.102 7.461C12.029 2.605 19.942 2.601 24.874 7.452C29.807 12.303 29.935 20.214 25.162 25.222L25.17 25.221H25.171Z" fill="#3C4196"/>
</svg>
