<svg width="25" height="25" viewBox="0 0 25 25" fill="none" xmlns="http://www.w3.org/2000/svg">
<g clip-path="url(#clip0)">
<path d="M12.0013 5.97821C11.579 5.97821 11.2475 5.66471 11.2475 5.26421C11.2475 4.85771 11.5767 4.55021 12.0013 4.55021H15.1743C15.5906 4.55021 15.9198 4.86521 15.9198 5.26421C15.9198 5.42246 15.8602 5.56946 15.7359 5.73971L15.7306 5.74721L13.2168 8.90546H15.2502C15.6725 8.90546 15.9958 9.21821 15.9958 9.61946C15.9958 10.0237 15.6688 10.3335 15.2502 10.3335H11.7093C11.287 10.3335 10.9555 10.02 10.9555 9.61946C10.9555 9.45521 11.0174 9.32021 11.1537 9.14546L13.6682 5.97896H12.0028L12.0013 5.97821ZM17.9778 3.31196C17.6121 3.31196 17.3253 3.04046 17.3253 2.69321C17.3253 2.34071 17.6098 2.07446 17.9778 2.07446H20.7225C21.0822 2.07446 21.3675 2.34746 21.3675 2.69321C21.3675 2.83046 21.3161 2.95796 21.2081 3.10496L21.2036 3.11096L19.0287 5.84846H20.788C21.153 5.84846 21.433 6.11996 21.433 6.46721C21.433 6.81821 21.15 7.08596 20.788 7.08596H17.7245C17.3588 7.08596 17.0721 6.81446 17.0721 6.46721C17.0721 6.32471 17.1257 6.20771 17.2434 6.05621L19.419 3.31121H17.9785L17.9778 3.31196ZM23.3651 15.438C23.7465 15.438 24.0556 15.7492 24.0556 16.1332C24.0556 16.5172 23.7465 16.8285 23.3651 16.8285H22.4996C22.5093 16.9567 22.5145 17.0865 22.5145 17.217C22.5145 19.9582 20.2733 22.1887 17.519 22.1887C15.8118 22.1887 14.2425 21.3375 13.3189 19.9125L12.1376 18.0907L10.9563 19.9125C10.032 21.3375 8.46261 22.1887 6.75845 22.1887C4.00109 22.1887 1.76065 19.9582 1.76065 17.217C1.76065 17.0865 1.76587 16.9567 1.77555 16.8285H0.91006C0.528708 16.8285 0.219604 16.5172 0.219604 16.1332C0.219604 15.7492 0.528708 15.438 0.91006 15.438H2.09136C2.8116 13.5727 4.63122 12.2452 6.75621 12.2452H17.519C19.644 12.2452 21.4628 13.5727 22.1838 15.438H23.3651Z" fill="white"/>
</g>
<defs>
<clipPath id="clip0">
<rect width="23.8345" height="24" fill="white" transform="translate(0.221069 0.449219)"/>
</clipPath>
</defs>
</svg>
