<svg width="16" height="17" viewBox="0 0 16 17" fill="none" xmlns="http://www.w3.org/2000/svg">
<g clip-path="url(#clip0)">
<path d="M2.4275 12.5271L3.2485 11.7041C3.601 11.3511 4.0885 11.1676 4.5865 11.2001C5.0845 11.2326 5.544 11.4776 5.848 11.8731C5.899 11.9401 5.9935 11.9556 6.0635 11.9091L6.152 11.8496C6.84 11.3936 7.7545 11.4841 8.3395 12.0666L8.565 12.2911C8.595 12.3211 8.6355 12.3386 8.6785 12.3386H10.8805C11.234 12.3386 11.5205 12.6251 11.5205 12.9786C11.5205 13.3321 11.234 13.6186 10.8805 13.6186H8.3465C8.177 13.6186 8.014 13.5511 7.894 13.4311L7.4345 12.9716C7.2815 12.8191 7.0425 12.7956 6.8625 12.9146L6.238 13.3311C6.003 13.4881 5.7065 13.5211 5.443 13.4191C5.1795 13.3171 4.982 13.0931 4.914 12.8191C4.8735 12.6616 4.7515 12.5376 4.5945 12.4951C4.4375 12.4526 4.2695 12.4966 4.1545 12.6116L3.3335 13.4336C3.0835 13.6836 2.678 13.6836 2.428 13.4331C2.178 13.1826 2.178 12.7776 2.4285 12.5276L2.4275 12.5271ZM15.36 7.86006V15.5401C15.36 16.0701 14.93 16.5001 14.4 16.5001H0.96C0.43 16.5001 0 16.0701 0 15.5401V7.86006C0 7.50656 0.2865 7.22006 0.64 7.22006H3.84C4.1935 7.22006 4.48 7.50656 4.48 7.86006C4.48 8.21356 4.1935 8.50006 3.84 8.50006H1.44C1.3975 8.50006 1.3565 8.51656 1.3265 8.54656C1.2965 8.57656 1.2795 8.61756 1.28 8.66006V15.0601C1.28 15.1486 1.3515 15.2201 1.44 15.2201H13.92C14.0085 15.2201 14.08 15.1486 14.08 15.0601V8.66006C14.08 8.61756 14.0635 8.57656 14.0335 8.54656C14.0035 8.51656 13.9625 8.49956 13.92 8.50006H12.8C12.4465 8.50006 12.16 8.21356 12.16 7.86006C12.16 7.50656 12.4465 7.22006 12.8 7.22006H14.72C15.0735 7.22006 15.36 7.50656 15.36 7.86006ZM13.59 4.00206L9.314 8.27656C9.284 8.30656 9.2435 8.32356 9.201 8.32356C9.1585 8.32356 9.118 8.30656 9.088 8.27656L6.9425 6.13056C6.88 6.06806 6.88 5.96656 6.9425 5.90406L11.217 1.62956C11.872 0.974556 12.9345 0.974556 13.5895 1.62956C14.2445 2.28456 14.2445 3.34706 13.5895 4.00206H13.59ZM5.854 9.36605C5.778 9.29006 5.745 9.18156 5.7665 9.07606L6.1685 7.06606C6.1805 7.00856 6.223 6.96206 6.279 6.94506C6.335 6.92806 6.3965 6.94306 6.4385 6.98456L8.2375 8.78156C8.279 8.82355 8.294 8.88456 8.277 8.94106C8.26 8.99756 8.2135 9.04006 8.156 9.05156L6.1445 9.45405C6.1235 9.45856 6.102 9.46055 6.0805 9.46055C5.9955 9.46055 5.9145 9.42655 5.8545 9.36655L5.854 9.36605Z" fill="white"/>
</g>
<defs>
<clipPath id="clip0">
<rect width="16" height="16" fill="white" transform="translate(0 0.5)"/>
</clipPath>
</defs>
</svg>
