<svg width="16" height="17" viewBox="0 0 16 17" fill="none" xmlns="http://www.w3.org/2000/svg">
<g clip-path="url(#clip0)">
<path d="M13.0555 7.8305C13.148 8.241 13.2315 8.643 13.3055 9.036H12.389L12.8335 7.884L12.889 7.75L12.9725 7.482L13.056 7.83L13.0555 7.8305ZM16 3.7855V13.214C16 13.571 15.8705 13.8745 15.611 14.1245C15.3515 14.3745 15.037 14.4995 14.6665 14.4995H1.33301C0.962512 14.4995 0.648012 14.3745 0.388512 14.1245C0.129012 13.8745 -0.000488281 13.571 -0.000488281 13.214V3.7855C-0.000488281 3.4285 0.129012 3.125 0.388512 2.875C0.648012 2.625 0.962512 2.5 1.33301 2.5H14.6665C15.037 2.5 15.3515 2.625 15.611 2.875C15.8705 3.125 16 3.4285 16 3.7855ZM4.25001 10.509L6.00001 6.357H4.80551L3.72201 9.1965L3.22201 6.7055C3.16651 6.491 2.99051 6.375 2.69401 6.3575H0.916012L0.888012 6.438C1.31401 6.545 1.70301 6.697 2.05451 6.8935L3.05451 10.5095H4.24901L4.25001 10.509ZM6.86101 10.509L7.55551 6.357H6.44451L5.75001 10.509H6.86101ZM10.75 9.1695C10.75 8.705 10.435 8.3215 9.80551 8.0175C9.58351 7.9105 9.42101 7.821 9.31951 7.7495C9.21801 7.678 9.17151 7.5975 9.18051 7.5085C9.19001 7.419 9.24551 7.339 9.34701 7.2675C9.44851 7.196 9.60151 7.1605 9.80551 7.1605C10.102 7.1425 10.3795 7.196 10.639 7.321L10.75 7.348L10.9165 6.464C10.6015 6.339 10.2685 6.2765 9.91651 6.2765C9.36101 6.2765 8.90751 6.406 8.55551 6.665C8.20351 6.924 8.02301 7.263 8.01401 7.683C8.00451 8.1025 8.33351 8.473 9.00001 8.7945C9.20351 8.884 9.35201 8.9685 9.44451 9.049C9.53701 9.1295 9.58351 9.214 9.58351 9.3035C9.58351 9.4285 9.51401 9.5265 9.37501 9.598C9.23601 9.6695 9.06951 9.705 8.87501 9.705C8.68051 9.705 8.50951 9.6915 8.36101 9.665C8.21251 9.6385 8.04601 9.58 7.86101 9.491L7.72201 9.4105L7.55551 10.348C7.87051 10.491 8.28701 10.571 8.80551 10.589C9.37951 10.589 9.84701 10.4595 10.2085 10.2005C10.57 9.9415 10.75 9.598 10.75 9.169V9.1695ZM14.6665 10.509L13.7775 6.357H12.9165C12.62 6.357 12.426 6.473 12.333 6.705L10.6665 10.5085H11.833L12.055 9.8925H13.4995L13.6385 10.5085H14.6665V10.509Z" fill="white"/>
</g>
<defs>
<clipPath id="clip0">
<rect width="16" height="16" fill="white" transform="translate(0 0.5)"/>
</clipPath>
</defs>
</svg>
