<svg width="21" height="21" viewBox="0 0 21 21" fill="none" xmlns="http://www.w3.org/2000/svg">
<path d="M18.1901 8.19621C18.1901 3.91746 14.8071 0.449463 10.6345 0.449463C6.46202 0.449463 3.07901 3.91821 3.07901 8.19621C3.07901 12.475 6.46202 15.943 10.6345 15.943C14.8056 15.9385 18.1856 12.4727 18.1901 8.19621V8.19621ZM12.9457 6.68046C13.383 6.67971 13.7904 6.90546 14.0302 7.28046C14.27 7.65546 14.3088 8.12871 14.1337 8.53971L13.3815 10.3105C13.1066 10.9322 12.4929 11.3222 11.827 11.2975H10.6129C10.2197 11.3147 9.82715 11.2345 9.47038 11.0635C8.8477 10.8092 8.17438 10.711 7.50701 10.7777C7.26867 10.7777 7.07501 10.5797 7.07501 10.3352V7.74471C7.07501 7.50021 7.26867 7.30221 7.50701 7.30221H8.09691C8.93038 7.30221 9.47112 6.09696 10.0431 4.82346C10.1735 4.40346 10.5705 4.13271 10.9988 4.17096C11.258 4.23021 11.5745 4.46721 11.5745 5.26296V6.67971L12.945 6.68121L12.9457 6.68046ZM20.4357 16.882V16.8805C20.6041 17.1775 20.5892 17.5472 20.3985 17.8292C20.2078 18.1112 19.8756 18.2552 19.5457 18.1982L17.4803 17.8397L16.7615 19.8647C16.6483 20.1865 16.3638 20.413 16.0316 20.4452C15.6994 20.4775 15.3783 20.311 15.207 20.017L13.5014 17.0575C13.4686 17.0005 13.4627 16.9315 13.4843 16.8692C13.5059 16.807 13.5543 16.7582 13.6146 16.7365C15.4067 16.0727 16.9432 14.836 17.9972 13.2085C18.0389 13.1447 18.1089 13.108 18.1834 13.1102C18.2579 13.1125 18.3256 13.1537 18.3636 13.2197L20.4357 16.8835V16.882ZM3.25628 13.1845C4.30649 14.8165 5.84083 16.0592 7.63363 16.7275C7.69396 16.75 7.74163 16.7987 7.76323 16.8602C7.78483 16.9217 7.77887 16.9907 7.7461 17.0477L6.03598 20.0147C5.86541 20.3095 5.54514 20.4767 5.21294 20.4445C4.88075 20.4122 4.59548 20.1872 4.48152 19.8655L3.76202 17.8397L1.69736 18.1982C1.3674 18.2552 1.0352 18.112 0.843783 17.83C0.652363 17.548 0.638211 17.1782 0.805797 16.882L2.88834 13.1942C2.92558 13.1282 2.9941 13.0862 3.06858 13.0847C3.14307 13.0832 3.21457 13.1192 3.25479 13.1837L3.25628 13.1845Z" fill="white"/>
</svg>
