<svg width="16" height="17" viewBox="0 0 16 17" fill="none" xmlns="http://www.w3.org/2000/svg">
<g clip-path="url(#clip0)">
<path d="M11.5531 8.63398L12.7751 8.89149C12.9636 8.91599 13.2096 9.01649 13.4431 9.24098C13.8661 9.64798 14.0706 10.3215 13.9786 11.304C13.6906 14.401 12.0251 16.4525 8.23305 16.499C8.22405 16.4995 8.21555 16.5 8.20655 16.5C8.19055 16.5 8.17505 16.5 8.15905 16.5C8.11005 16.5005 8.06105 16.5 8.01155 16.5C7.99355 16.5 7.97555 16.4985 7.95805 16.496C5.29405 16.4005 3.09105 14.778 3.09105 12.506C3.09105 12.3555 3.24305 12.2335 3.43005 12.2335C3.61705 12.2335 3.76905 12.3555 3.76905 12.506C3.76905 14.4135 5.56155 15.789 7.79055 15.9415C7.85205 15.8955 7.93105 15.868 8.01755 15.869C11.5311 15.897 13.0136 14.1175 13.2801 11.2515C13.3566 10.434 13.2056 9.93648 12.9311 9.67248C12.8626 9.60648 12.7921 9.56199 12.7246 9.53448C12.6911 9.52098 12.6721 9.51599 12.6451 9.51149L8.55605 8.65098C8.53605 8.64598 8.49155 8.63649 8.42805 8.62648C8.20805 8.59149 7.97605 8.58648 7.77005 8.62799C7.45755 8.69049 7.25055 8.84748 7.15005 9.15248C7.08505 9.34748 7.05305 9.52098 7.06755 9.67598C7.11755 9.66398 7.17105 9.66448 7.22405 9.67898C7.39205 9.72648 7.49005 9.90298 7.44355 10.073C7.43155 10.1175 7.41705 10.1615 7.40105 10.2045C7.60755 10.35 7.92055 10.4745 8.36805 10.5845L11.0621 11.1265C11.5101 11.2165 11.3726 11.8205 10.9216 11.7445C10.9096 11.7425 10.8791 11.7385 10.8336 11.734C10.4956 11.7015 10.1121 11.7255 9.75905 11.845C9.10005 12.0685 8.69205 12.5785 8.64155 13.5235C8.63205 13.6975 8.46805 13.832 8.27455 13.8235C8.08105 13.815 7.93205 13.667 7.94155 13.493C7.99755 12.4495 8.45055 11.76 9.17805 11.3935L8.19905 11.1965C7.70605 11.075 7.32555 10.9215 7.04255 10.7405C6.99155 10.7885 6.93705 10.8325 6.87955 10.873L6.80955 10.9205C6.15955 11.364 5.27905 11.1915 4.83755 10.5325L4.33455 9.77199C4.24205 9.78199 4.14405 9.76398 4.06455 9.71598C3.74005 9.51848 3.27505 9.54248 2.99005 9.76948L2.92055 9.82598C2.57455 10.101 2.65255 10.6215 3.19655 11.044L5.17155 12.558C5.52505 12.821 6.08655 12.8145 6.42605 12.546L6.49405 12.4905C6.83355 12.218 6.82605 11.7855 6.47755 11.52C6.33755 11.4135 6.33605 11.2395 6.47355 11.1315C6.61105 11.0235 6.83605 11.022 6.97605 11.1285C7.60255 11.605 7.61555 12.3825 7.00755 12.8705L6.93755 12.927C6.32155 13.414 5.31255 13.426 4.67455 12.9505L2.69405 11.4325C1.89605 10.8125 1.76705 9.95398 2.40805 9.44498L2.47705 9.38898C2.84605 9.09499 3.37005 8.98098 3.85955 9.05548L3.45505 8.44349C2.90305 7.59249 2.98405 6.58799 3.66205 6.11549L3.74955 6.05699C4.59255 5.55949 5.29955 5.93099 5.87005 6.77499L5.95955 6.90999L5.31655 2.26299C5.11405 1.50799 5.64155 0.680485 6.44505 0.530485C6.85805 0.452985 7.28905 0.524485 7.64205 0.728485C7.99505 0.932485 8.23905 1.25249 8.31805 1.60649L9.13655 4.67849L10.0606 1.58299C10.2706 0.810485 11.0776 0.346985 11.8831 0.545985C12.6021 0.754985 13.0356 1.46949 12.8776 2.18149L11.5541 8.63398H11.5531ZM10.9631 8.50998L12.2861 2.06149C12.3781 1.64649 12.1271 1.23199 11.7226 1.11449C11.2496 0.997985 10.7686 1.27399 10.6416 1.74149L9.43255 5.79149L9.62805 6.52449C9.66955 6.68098 9.55905 6.83749 9.38105 6.87399C9.28655 6.89349 9.19205 6.87499 9.11755 6.83049C9.05355 6.95549 8.90555 7.02199 8.76305 6.98149C8.60305 6.93599 8.51105 6.77249 8.55805 6.61599L8.77655 5.88349L7.67005 1.72899C7.62305 1.51799 7.48105 1.33249 7.27705 1.21449C7.07305 1.09649 6.82305 1.05499 6.58355 1.09949C6.15655 1.17949 5.83555 1.68749 5.96455 2.14049L5.97205 2.17599L6.72805 7.64049C6.74205 7.74149 6.69505 7.83699 6.61255 7.89798L6.90255 8.33649C7.09805 8.17449 7.34055 8.06699 7.61805 8.01149C7.92705 7.94949 8.24605 7.95649 8.54905 8.00449C8.63855 8.01849 8.70705 8.03349 8.73255 8.04049L10.9636 8.51048L10.9631 8.50998ZM6.50805 8.88898C6.50555 8.88598 6.50355 8.88248 6.50105 8.87898L5.34805 7.13499C4.94255 6.53499 4.54755 6.32749 4.08305 6.60099L4.01555 6.64649C3.65355 6.89899 3.60405 7.50899 3.98055 8.08949L5.35955 10.1745C5.60455 10.5405 6.09505 10.6365 6.45805 10.389L6.52555 10.3435C6.54255 10.3315 6.55905 10.319 6.57505 10.306C6.31605 9.92848 6.31055 9.47748 6.47855 8.97198C6.48805 8.94398 6.49755 8.91648 6.50855 8.88948L6.50805 8.88898Z" fill="white"/>
</g>
<defs>
<clipPath id="clip0">
<rect width="16" height="16" fill="white" transform="translate(0 0.5)"/>
</clipPath>
</defs>
</svg>
