<svg width="16" height="17" viewBox="0 0 16 17" fill="none" xmlns="http://www.w3.org/2000/svg">
<g clip-path="url(#clip0)">
<path d="M8 0.5C9.441 0.5 10.774 0.86 12 1.5805C13.226 2.301 14.199 3.274 14.9195 4.5C15.64 5.726 16 7.059 16 8.5C16 9.941 15.64 11.274 14.9195 12.5C14.199 13.726 13.226 14.699 12 15.4195C10.774 16.14 9.441 16.5 8 16.5C6.559 16.5 5.226 16.14 4 15.4195C2.774 14.699 1.801 13.726 1.0805 12.5C0.36 11.274 0 9.941 0 8.5C0 7.059 0.36 5.726 1.0805 4.5C1.801 3.274 2.774 2.301 4 1.5805C5.226 0.86 6.559 0.5 8 0.5V0.5ZM11.258 12.274C11.387 12.274 11.5 12.2255 11.5965 12.129C11.693 12.0325 11.7415 11.914 11.7415 11.774C11.7415 11.634 11.7145 11.5265 11.661 11.4515C11.6075 11.3765 11.5265 11.3065 11.419 11.242C9.3545 10.016 6.806 9.7365 3.774 10.4035C3.4945 10.468 3.3545 10.651 3.3545 10.952C3.3545 11.081 3.3975 11.194 3.4835 11.2905C3.5695 11.387 3.688 11.4355 3.8385 11.4355C3.903 11.4355 4.0105 11.425 4.161 11.403L4.2255 11.3705C6.892 10.8115 9.118 11.0695 10.903 12.1445C11.032 12.2305 11.1505 12.2735 11.258 12.2735V12.274ZM12.129 10.145C12.301 10.145 12.446 10.086 12.5645 9.9675C12.683 9.849 12.742 9.704 12.742 9.532C12.742 9.2525 12.6235 9.0375 12.387 8.887C11.5915 8.414 10.699 8.0535 9.7095 7.8065C8.72 7.5595 7.699 7.4355 6.645 7.4355C5.591 7.4355 4.548 7.5755 3.516 7.855C3.172 7.9625 3 8.1885 3 8.5325C3 8.7045 3.0645 8.8495 3.1935 8.968C3.3225 9.0865 3.473 9.1455 3.645 9.1455C3.7095 9.1455 3.7955 9.135 3.903 9.113L4.032 9.0805C5.3225 8.715 6.688 8.629 8.129 8.8225C9.484 9.016 10.6775 9.414 11.7095 10.016L11.774 10.0485C11.903 10.113 12.0215 10.1455 12.129 10.1455V10.145ZM13.129 7.6935C13.3225 7.6935 13.4945 7.6235 13.645 7.484C13.7955 7.3445 13.871 7.167 13.871 6.9515C13.871 6.629 13.731 6.3815 13.4515 6.2095C12.57 5.715 11.5375 5.328 10.3545 5.048C9.2145 4.79 8.0425 4.661 6.8385 4.661C5.419 4.661 4.1505 4.833 3.032 5.177C2.8815 5.22 2.7525 5.306 2.645 5.435C2.5375 5.564 2.4835 5.7305 2.4835 5.935C2.4835 6.1395 2.5535 6.3165 2.693 6.4675C2.8325 6.6185 3.01 6.6935 3.2255 6.6935C3.3115 6.6935 3.43 6.672 3.5805 6.629L3.645 6.5965C5 6.231 6.548 6.134 8.29 6.306C10.0965 6.478 11.5695 6.8975 12.7095 7.564C12.8385 7.65 12.9785 7.693 13.129 7.693V7.6935Z" fill="white"/>
</g>
<defs>
<clipPath id="clip0">
<rect width="16" height="16" fill="white" transform="translate(0 0.5)"/>
</clipPath>
</defs>
</svg>
