<svg width="16" height="17" viewBox="0 0 16 17" fill="none" xmlns="http://www.w3.org/2000/svg">
<g clip-path="url(#clip0)">
<path d="M14.344 5.66649C14.365 5.74749 14.3755 5.87949 14.3755 6.06249C14.3755 7.52399 14.011 8.93499 13.2815 10.295C12.5315 11.7365 11.4795 12.883 10.125 13.7355C8.64601 14.6895 6.94801 15.1665 5.03101 15.1665C3.19751 15.1665 1.52051 14.6895 -0.000488281 13.7355C0.228512 13.756 0.489012 13.766 0.781012 13.766C2.30201 13.766 3.66651 13.3095 4.87501 12.396C4.14601 12.396 3.50501 12.188 2.95301 11.772C2.40101 11.356 2.02051 10.833 1.81251 10.204C2.02101 10.2245 2.21901 10.2345 2.40651 10.2345C2.69801 10.2345 2.99001 10.204 3.28151 10.143C2.53151 9.98049 1.90651 9.60499 1.40651 9.01649C0.906512 8.42799 0.656512 7.75799 0.656512 7.00699V6.94599C1.11501 7.20999 1.60451 7.35199 2.12551 7.37249C1.68801 7.06799 1.33401 6.68249 1.06301 6.21549C0.792012 5.74849 0.656512 5.23599 0.656512 4.67799C0.656512 4.11999 0.813012 3.58699 1.12551 3.07949C1.93801 4.07399 2.93301 4.86599 4.11001 5.45449C5.28701 6.04299 6.54251 6.36799 7.87551 6.42899C7.83401 6.18549 7.81301 5.94199 7.81301 5.69799C7.81301 5.12949 7.95901 4.59699 8.25051 4.09949C8.54201 3.60199 8.93801 3.21149 9.43801 2.92699C9.93801 2.64299 10.4795 2.50049 11.063 2.50049C11.542 2.50049 11.985 2.59199 12.391 2.77449C12.797 2.95699 13.1565 3.20099 13.469 3.50549C14.219 3.36349 14.917 3.10949 15.563 2.74449C15.313 3.49549 14.834 4.08399 14.1255 4.51049C14.7505 4.42949 15.3755 4.25699 16.0005 3.99299C15.542 4.64249 14.99 5.20099 14.344 5.66749V5.66649Z" fill="white"/>
</g>
<defs>
<clipPath id="clip0">
<rect width="16" height="16" fill="white" transform="translate(0 0.5)"/>
</clipPath>
</defs>
</svg>
