<svg width="16" height="17" viewBox="0 0 16 17" fill="none" xmlns="http://www.w3.org/2000/svg">
<g clip-path="url(#clip0)">
<path d="M15.9295 10.596C15.847 10.344 15.6675 10.135 15.431 10.016L10.6885 7.62202C10.1955 7.37302 9.5945 7.57052 9.345 8.06352L8.9335 8.87902C8.9095 8.92602 8.865 8.95852 8.8135 8.96752C8.762 8.97652 8.7085 8.96052 8.6705 8.92502C8.191 8.47452 7.629 8.12002 7.016 7.88102C6.9565 7.85802 6.9155 7.80252 6.9105 7.73852C6.9055 7.67452 6.9375 7.61352 6.993 7.58152C8.4805 6.71952 9.201 4.96352 8.7475 3.30502C8.294 1.64652 6.781 0.50102 5.062 0.515019C3.3425 0.529019 1.8485 1.69902 1.4225 3.36502C0.996496 5.03102 1.7455 6.77452 3.247 7.61202C3.3025 7.64352 3.3355 7.70402 3.3315 7.76752C3.3275 7.83102 3.2875 7.88702 3.2285 7.91152C1.2915 8.69902 0.0239961 10.5805 0.0209961 12.6715C0.0209961 12.8555 0.169996 13.005 0.354496 13.005H6.468C6.56 13.005 6.6345 13.0795 6.6345 13.1715V15.486C6.6345 16.0385 7.082 16.486 7.6345 16.486H12.947C13.4995 16.486 13.947 16.0385 13.947 15.486V14.8495C13.947 14.7925 13.9765 14.7395 14.0245 14.709C14.1745 14.615 14.296 14.483 14.377 14.3255L15.8735 11.361C15.994 11.124 16.0145 10.8485 15.93 10.5965L15.9295 10.596ZM8.1335 15.1525C8.0415 15.1525 7.967 15.078 7.967 14.986V12.6635C7.969 12.573 8.043 12.5 8.1335 12.5H12.446C12.538 12.5 12.6125 12.5745 12.6125 12.6665V14.989C12.6125 15.081 12.538 15.1555 12.446 15.1555L8.1335 15.152V15.1525ZM5.6595 9.77852V10.9C5.6595 11.176 5.4355 11.4 5.1595 11.4C4.8835 11.4 4.6595 11.176 4.6595 10.9V9.77852C4.6595 9.50252 4.8835 9.27852 5.1595 9.27852C5.4355 9.27852 5.6595 9.50252 5.6595 9.77852ZM12.9445 11.1665H9.5445C9.4865 11.1665 9.433 11.1365 9.4025 11.087C9.372 11.0375 9.3695 10.976 9.396 10.9245L10.31 9.11402C10.3295 9.07452 10.3645 9.04452 10.4065 9.03052C10.4485 9.01652 10.494 9.02052 10.5335 9.04052L14.3835 10.984C14.4655 11.026 14.498 11.126 14.457 11.208L13.9705 12.1725C13.9675 12.178 13.9615 12.1805 13.956 12.179C13.9505 12.1775 13.946 12.1725 13.946 12.1665C13.946 11.901 13.8405 11.6465 13.653 11.459C13.4655 11.2715 13.211 11.166 12.9455 11.1665H12.9445ZM2.6365 4.30452C2.6375 3.98352 2.7035 3.66602 2.8305 3.37102C2.8505 3.32452 2.891 3.28952 2.94 3.27552C2.989 3.26152 3.0415 3.27102 3.0825 3.30152C3.9665 3.95202 5.0355 4.30352 6.133 4.30402C6.5455 4.30302 6.956 4.25252 7.3565 4.15252C7.403 4.14102 7.452 4.15152 7.49 4.18102C7.528 4.21052 7.5495 4.25602 7.5495 4.30352C7.5495 5.66052 6.4495 6.76102 5.092 6.76102C3.7345 6.76102 2.6345 5.66102 2.6345 4.30352H2.6365V4.30452ZM10.354 14.552C9.986 14.552 9.6875 14.2535 9.6875 13.8855C9.6875 13.5175 9.986 13.219 10.354 13.219C10.722 13.219 11.0205 13.5175 11.0205 13.8855C11.0205 14.2535 10.722 14.552 10.354 14.552Z" fill="white"/>
</g>
<defs>
<clipPath id="clip0">
<rect width="16" height="16" fill="white" transform="translate(0 0.5)"/>
</clipPath>
</defs>
</svg>
