<svg width="16" height="17" viewBox="0 0 16 17" fill="none" xmlns="http://www.w3.org/2000/svg">
<g clip-path="url(#clip0)">
<path d="M5.19246 9.9095C5.14596 10.215 4.97246 11.319 4.67196 13.2225L4.46396 14.632C4.44096 14.679 4.40596 14.7025 4.35996 14.7025H1.75696C1.64146 14.7025 1.53696 14.6555 1.44446 14.5615C1.35196 14.4675 1.31696 14.35 1.34046 14.209L3.38796 1.134C3.41096 0.946 3.48646 0.799 3.61346 0.6935C3.74046 0.588 3.89696 0.535 4.08196 0.535L6.61546 0.5C8.16546 0.5 9.14896 0.5235 9.56546 0.5705C10.0975 0.594 10.6295 0.7115 11.162 0.923C12.1335 1.3225 12.735 1.9805 12.9665 2.8965C13.1745 3.719 13.082 4.7055 12.689 5.857C11.972 7.948 10.3525 9.017 7.83046 9.064H7.03246C6.40796 9.0405 5.99146 9.064 5.78296 9.1345C5.48196 9.252 5.28546 9.5105 5.19296 9.91L5.19246 9.9095ZM13.7295 4.835C14.5625 5.4695 14.84 6.562 14.5625 8.1125C14.0535 10.744 12.3995 12.0595 9.59996 12.0595H9.46096C9.18346 12.0595 8.99846 12.083 8.90546 12.13C8.76646 12.224 8.66246 12.4355 8.59296 12.7645L8.07246 15.9715C8.04946 16.1125 7.97996 16.236 7.86446 16.3415C7.74896 16.447 7.62146 16.5 7.48246 16.5H5.26146C5.14596 16.5 5.05346 16.453 4.98396 16.359C4.91446 16.265 4.89146 16.1595 4.91446 16.042L5.85146 10.051C5.87446 9.8395 6.00196 9.734 6.23346 9.734H6.64996C7.62146 9.734 8.39696 9.699 8.97496 9.6285C9.94646 9.464 10.7795 9.147 11.4735 8.677C12.3065 8.066 12.9195 7.197 13.313 6.069C13.452 5.6225 13.556 5.223 13.6255 4.871C13.6255 4.824 13.637 4.8005 13.66 4.8005C13.683 4.8005 13.7065 4.8125 13.7295 4.8355V4.835Z" fill="white"/>
</g>
<defs>
<clipPath id="clip0">
<rect width="16" height="16" fill="white" transform="translate(0 0.5)"/>
</clipPath>
</defs>
</svg>
