<svg width="16" height="17" viewBox="0 0 16 17" fill="none" xmlns="http://www.w3.org/2000/svg">
<g clip-path="url(#clip0)">
<path d="M15.6775 4.9375C15.814 5.469 15.912 6.2755 15.9705 7.3575L16 8.833L15.9705 10.3085C15.912 11.4105 15.814 12.227 15.6775 12.758C15.58 13.0925 15.404 13.3875 15.15 13.6435C14.896 13.8995 14.593 14.0765 14.2415 14.175C13.7335 14.3125 12.542 14.411 10.6665 14.47L8 14.4995L5.3335 14.47C3.458 14.411 2.2665 14.3125 1.7585 14.175C1.407 14.0765 1.104 13.8995 0.85 13.6435C0.596 13.3875 0.42 13.0925 0.3225 12.758C0.1855 12.2265 0.088 11.41 0.0295 10.3085L0 8.833C0 8.4 0.01 7.908 0.0295 7.3575C0.088 6.2755 0.186 5.4685 0.3225 4.9375C0.42 4.5835 0.596 4.2785 0.85 4.0225C1.104 3.7665 1.407 3.5895 1.7585 3.491C2.2665 3.3535 3.458 3.255 5.3335 3.196L8 3.1665L10.6665 3.196C12.542 3.255 13.7335 3.3535 14.2415 3.491C14.593 3.5895 14.896 3.7665 15.15 4.0225C15.404 4.2785 15.58 4.5835 15.6775 4.9375ZM6.359 11.2535L10.5495 8.8335L6.359 6.443V11.254V11.2535Z" fill="white"/>
</g>
<defs>
<clipPath id="clip0">
<rect width="16" height="16" fill="white" transform="translate(0 0.5)"/>
</clipPath>
</defs>
</svg>
