<svg width="16" height="17" viewBox="0 0 16 17" fill="none" xmlns="http://www.w3.org/2000/svg">
<g clip-path="url(#clip0)">
<path d="M13.4165 12.598C13.4165 12.6875 13.3885 12.763 13.333 12.8255C13.2775 12.888 13.2035 12.9195 13.111 12.9195C13.0185 12.9195 12.9445 12.888 12.889 12.8255C12.8335 12.763 12.8055 12.687 12.8055 12.598C12.8055 12.5085 12.8335 12.4375 12.889 12.3835C12.9445 12.3295 13.0185 12.303 13.111 12.303C13.2035 12.303 13.2775 12.33 13.333 12.3835C13.3885 12.437 13.4165 12.5085 13.4165 12.598ZM4.77801 12.3035C4.87051 12.3035 4.94451 12.3305 5.00001 12.384C5.05551 12.4375 5.08351 12.509 5.08351 12.5985C5.08351 12.688 5.05551 12.7635 5.00001 12.826C4.94451 12.8885 4.87051 12.92 4.77801 12.92C4.68551 12.92 4.61151 12.8885 4.55601 12.826C4.50051 12.7635 4.47251 12.6875 4.47251 12.5985C4.47251 12.509 4.50051 12.438 4.55601 12.384C4.61151 12.33 4.68551 12.3035 4.77801 12.3035ZM8.05551 12.277C8.20351 12.277 8.28701 12.3575 8.30551 12.518H7.77751C7.79601 12.3575 7.88851 12.277 8.05551 12.277ZM11.028 12.3035C11.1205 12.3035 11.1995 12.3305 11.264 12.384C11.3285 12.4375 11.361 12.509 11.361 12.5985C11.361 12.688 11.3285 12.7635 11.264 12.826C11.1995 12.8885 11.1205 12.92 11.028 12.92C10.9355 12.92 10.866 12.8885 10.8195 12.826C10.773 12.7635 10.7455 12.6875 10.736 12.5985C10.7265 12.509 10.75 12.438 10.8055 12.384C10.861 12.33 10.935 12.3035 11.0275 12.3035H11.028ZM13.972 13V13.0535L13.9165 13.107L13.833 13.0265L13.861 12.973L13.9165 12.946H13.9445L13.9725 12.9995L13.972 13ZM16 3.7855V13.214C16 13.571 15.8705 13.8745 15.611 14.1245C15.3515 14.3745 15.037 14.4995 14.6665 14.4995H1.33301C0.962512 14.4995 0.648012 14.3745 0.388512 14.1245C0.129012 13.8745 -0.000488281 13.571 -0.000488281 13.214V3.7855C-0.000488281 3.4285 0.129012 3.125 0.388512 2.875C0.648012 2.625 0.962512 2.5 1.33301 2.5H14.6665C15.037 2.5 15.3515 2.625 15.611 2.875C15.8705 3.125 16 3.4285 16 3.7855ZM1.77801 7.5355C1.77801 8.196 1.94951 8.8125 2.29201 9.3835C2.63451 9.9545 3.10201 10.406 3.69501 10.736C4.28751 11.0665 4.92651 11.2315 5.61151 11.2315C6.38951 11.2315 7.10201 11.026 7.75051 10.6155C7.08401 10.0975 6.63501 9.455 6.40351 8.687C6.17201 7.919 6.17651 7.1515 6.41751 6.3835C6.65801 5.6155 7.10251 4.973 7.75101 4.455C7.10301 4.0265 6.39001 3.812 5.61201 3.812C4.92701 3.812 4.28801 3.9815 3.69551 4.321C3.10301 4.6605 2.63551 5.111 2.29251 5.6735C1.95001 6.236 1.77851 6.8565 1.77851 7.535L1.77801 7.5355ZM8.00001 10.4285C8.62951 9.964 9.06001 9.366 9.29151 8.634C9.52301 7.902 9.52301 7.1695 9.29151 6.4375C9.06001 5.7055 8.62951 5.098 8.00001 4.616C7.37051 5.098 6.94001 5.7055 6.70851 6.4375C6.47701 7.1695 6.47701 7.902 6.70851 8.634C6.94001 9.366 7.37051 9.9645 8.00001 10.4285ZM4.05551 12.491C4.05551 12.366 4.01851 12.268 3.94451 12.1965C3.87051 12.125 3.75951 12.0895 3.61101 12.0895C3.46301 12.0895 3.35151 12.152 3.27751 12.277C3.20351 12.152 3.09701 12.0895 2.95801 12.0895C2.81901 12.0895 2.71251 12.134 2.63851 12.2235V12.1165H2.41651V13.1075H2.63851V12.8665C2.63851 12.652 2.65251 12.5005 2.68001 12.411C2.70751 12.3215 2.77701 12.2815 2.88851 12.2905C2.99951 12.2995 3.06901 12.344 3.09701 12.4245C3.12501 12.505 3.13851 12.652 3.13851 12.8665V13.1075H3.36051L3.33251 12.8665C3.33251 12.652 3.34651 12.5005 3.37401 12.411C3.40151 12.3215 3.47101 12.2815 3.58251 12.2905C3.69351 12.2995 3.76301 12.344 3.79101 12.4245C3.81901 12.505 3.83251 12.652 3.83251 12.8665V13.1075H4.05451V12.4915L4.05551 12.491ZM5.30551 12.116H5.08351V12.223C4.99101 12.1335 4.87501 12.089 4.73651 12.089C4.59801 12.089 4.48201 12.138 4.38951 12.2365C4.29701 12.3345 4.25051 12.4595 4.25051 12.6115C4.25051 12.7635 4.29701 12.8885 4.38951 12.9865C4.48201 13.0845 4.60251 13.134 4.75051 13.134C4.89851 13.134 5.01001 13.0805 5.08401 12.9735V13.1075H5.30601V12.1165L5.30551 12.116ZM6.41651 12.8125C6.41651 12.7055 6.37001 12.625 6.27751 12.5715C6.22201 12.5535 6.12451 12.5315 5.98601 12.5045C5.84751 12.4775 5.77751 12.433 5.77751 12.3705C5.77751 12.308 5.83751 12.2765 5.95801 12.2765C6.07851 12.2765 6.19401 12.3035 6.30501 12.357L6.38851 12.1965C6.24051 12.107 6.06451 12.076 5.86051 12.1025C5.65651 12.129 5.55501 12.232 5.55501 12.4105C5.55501 12.5175 5.60151 12.589 5.69401 12.625C5.73101 12.6605 5.82351 12.6875 5.97201 12.7055C6.12051 12.7235 6.19401 12.768 6.19401 12.8395C6.19401 12.911 6.12451 12.9465 5.98551 12.9465C5.84651 12.9465 5.72151 12.911 5.61051 12.8395L5.52701 13C5.67501 13.107 5.86051 13.143 6.08251 13.107C6.30451 13.071 6.41601 12.973 6.41601 12.8125H6.41651ZM7.41651 13.0535L7.33301 12.866C7.25901 12.9015 7.18501 12.9195 7.11101 12.9195C7.03701 12.9195 7.00001 12.866 7.00001 12.759V12.3035H7.36101V12.116H7.00001V11.8215H6.77801V12.116H6.55601V12.3035H6.77801V12.759C6.77801 12.9735 6.85651 13.094 7.01401 13.1205C7.17151 13.147 7.30551 13.125 7.41701 13.0535H7.41651ZM7.77801 12.7055H8.52801C8.52801 12.295 8.37051 12.0895 8.05601 12.0895C7.90801 12.0895 7.78751 12.1385 7.69501 12.237C7.60251 12.3355 7.55601 12.456 7.55601 12.5985C7.55601 12.8665 7.66701 13.0315 7.88951 13.094C8.11201 13.1565 8.31551 13.1165 8.50051 12.9735L8.38951 12.813C8.27851 12.9025 8.15351 12.938 8.01451 12.92C7.87551 12.902 7.79701 12.8305 7.77851 12.7055H7.77801ZM9.41651 12.116C9.34251 12.0805 9.26351 12.0715 9.18051 12.089C9.09751 12.1065 9.03701 12.1515 9.00001 12.223V12.116H8.77801V13.107H9.00001V12.5445C9.00001 12.4015 9.04151 12.3215 9.12501 12.3035C9.20851 12.2855 9.28701 12.2945 9.36101 12.3305L9.41651 12.116ZM9.72201 12.598C9.72201 12.455 9.78201 12.3615 9.90251 12.3165C10.023 12.2715 10.148 12.294 10.2775 12.3835L10.3885 12.196C10.222 12.071 10.0275 12.0485 9.80501 12.129C9.58251 12.2095 9.47151 12.3655 9.47151 12.598C9.47151 12.7765 9.52701 12.9105 9.63801 13C9.74901 13.0895 9.87851 13.134 10.027 13.134C10.175 13.134 10.2955 13.0895 10.388 13L10.277 12.8395C10.1475 12.929 10.0225 12.951 9.90201 12.9065C9.78151 12.862 9.72151 12.759 9.72151 12.5985L9.72201 12.598ZM11.5555 12.116H11.3335V12.223C11.2595 12.1335 11.153 12.089 11.014 12.089C10.875 12.089 10.7545 12.1335 10.653 12.223C10.551 12.3125 10.5 12.4375 10.5 12.598C10.5 12.7585 10.5555 12.888 10.6665 12.9865C10.7775 13.0845 10.898 13.134 11.0275 13.134C11.157 13.134 11.259 13.0805 11.333 12.9735V13.1075H11.555V12.1165L11.5555 12.116ZM12.5 12.116C12.4445 12.098 12.3705 12.0935 12.278 12.1025C12.1855 12.1115 12.1205 12.1515 12.0835 12.223V12.116H11.8615V13.107H12.0835V12.5445C12.0835 12.4195 12.125 12.3435 12.2085 12.317C12.292 12.2905 12.3705 12.2945 12.4445 12.3305L12.5 12.116ZM13.611 11.7145H13.389V12.2235C13.315 12.134 13.213 12.0895 13.0835 12.0895C12.954 12.0895 12.8335 12.134 12.7225 12.2235C12.6115 12.313 12.556 12.438 12.556 12.5985C12.556 12.759 12.6115 12.8885 12.7225 12.987C12.8335 13.085 12.9585 13.1345 13.0975 13.1345C13.2365 13.1345 13.3335 13.081 13.389 12.974V13.108H13.611V11.715V11.7145ZM13.8335 9.7055V9.8395H13.8615V9.7055H13.917V9.6785H13.778V9.7055H13.8335ZM14 13.027V12.9735L13.9165 12.92L13.833 12.947L13.805 12.974V13.0545C13.805 13.0725 13.8145 13.0815 13.833 13.0815L13.861 13.1085H13.9445L14 13.028V13.027ZM13.9445 9.7725V9.7055L14 9.8125H14.028L14.0835 9.7055V9.8395H14.1115V9.679H14.056L14.028 9.786L13.9725 9.679H13.9445V9.773V9.7725ZM14.222 7.5355C14.222 6.857 14.0505 6.2365 13.708 5.674C13.3655 5.1115 12.898 4.6605 12.305 4.3215C11.7125 3.982 11.0735 3.8125 10.3885 3.8125C9.61051 3.8125 8.89801 4.018 8.24951 4.4285C8.89751 4.9465 9.34201 5.5935 9.58301 6.3705C9.82401 7.1475 9.82851 7.9195 9.59701 8.6875C9.36551 9.4555 8.91651 10.098 8.25001 10.616C8.89801 11.0265 9.61101 11.232 10.389 11.232C11.074 11.232 11.713 11.067 12.3055 10.7365C12.898 10.406 13.3655 9.955 13.7085 9.384C14.051 8.8125 14.2225 8.1965 14.2225 7.536L14.222 7.5355Z" fill="white"/>
</g>
<defs>
<clipPath id="clip0">
<rect width="16" height="16" fill="white" transform="translate(0 0.5)"/>
</clipPath>
</defs>
</svg>
