<svg width="16" height="17" viewBox="0 0 16 17" fill="none" xmlns="http://www.w3.org/2000/svg">
<g clip-path="url(#clip0)">
<path d="M8 4.39301C8.738 4.39301 9.4225 4.57751 10.0535 4.94651C10.6845 5.31551 11.1845 5.81551 11.5535 6.44651C11.9225 7.07751 12.107 7.76201 12.107 8.50001C12.107 9.23801 11.9225 9.92251 11.5535 10.5535C11.1845 11.1845 10.6845 11.6845 10.0535 12.0535C9.4225 12.4225 8.738 12.607 8 12.607C7.262 12.607 6.5775 12.4225 5.9465 12.0535C5.3155 11.6845 4.8155 11.1845 4.4465 10.5535C4.0775 9.92251 3.893 9.23801 3.893 8.50001C3.893 7.76201 4.0775 7.07751 4.4465 6.44651C4.8155 5.81551 5.3155 5.31551 5.9465 4.94651C6.5775 4.57751 7.262 4.39301 8 4.39301ZM8 11.1785C8.738 11.1785 9.369 10.9165 9.893 10.393C10.417 9.86951 10.6785 9.23801 10.6785 8.50001C10.6785 7.76201 10.4165 7.13101 9.893 6.60701C9.3695 6.08301 8.738 5.82151 8 5.82151C7.262 5.82151 6.631 6.08351 6.107 6.60701C5.583 7.13051 5.3215 7.76201 5.3215 8.50001C5.3215 9.23801 5.5835 9.86901 6.107 10.393C6.6305 10.917 7.262 11.1785 8 11.1785ZM13.25 4.21451C13.226 4.47651 13.125 4.70251 12.9465 4.89301C12.768 5.08351 12.5475 5.17851 12.286 5.17851C12.024 5.17851 11.798 5.08351 11.6075 4.89301C11.417 4.70251 11.322 4.47651 11.322 4.21451C11.322 3.95251 11.417 3.72651 11.6075 3.53601C11.798 3.34551 12.024 3.25051 12.286 3.25051C12.548 3.25051 12.774 3.34551 12.9645 3.53601C13.155 3.72651 13.25 3.95251 13.25 4.21451ZM15.9645 5.17851C15.9885 5.84501 16 6.95251 16 8.50001C16 10.0475 15.982 11.1605 15.9465 11.8395C15.911 12.518 15.8095 13.1075 15.643 13.6075C15.4285 14.2025 15.1015 14.7205 14.661 15.161C14.2205 15.6015 13.7025 15.929 13.1075 16.143C12.6075 16.3095 12.018 16.411 11.3395 16.4465C10.661 16.482 9.548 16.5 8 16.5C6.4525 16.5 5.3395 16.482 4.6605 16.4465C3.9815 16.411 3.3925 16.2975 2.8925 16.107C2.2975 15.9165 1.7795 15.601 1.339 15.1605C0.8985 14.72 0.571 14.202 0.357 13.607C0.1905 13.107 0.089 12.5175 0.0535 11.839C0.018 11.1605 0 10.0475 0 8.49951C0 6.95201 0.018 5.83901 0.0535 5.16001C0.089 4.48101 0.1905 3.89201 0.357 3.39201C0.5715 2.79701 0.8985 2.27901 1.339 1.83851C1.7795 1.39801 2.2975 1.07051 2.8925 0.856512C3.3925 0.690012 3.982 0.588512 4.6605 0.553012C5.339 0.517512 6.452 0.499512 8 0.499512C9.5475 0.499512 10.6605 0.517512 11.3395 0.553012C12.0185 0.588512 12.6075 0.690012 13.1075 0.856512C13.7025 1.07101 14.2205 1.39801 14.661 1.83851C15.1015 2.27901 15.429 2.79701 15.643 3.39201C15.8095 3.89201 15.917 4.48701 15.9645 5.17751V5.17851ZM14.25 13.2145C14.393 12.8095 14.488 12.167 14.5355 11.286C14.5595 10.762 14.571 10.024 14.571 9.07151V7.92851C14.571 6.95251 14.559 6.21401 14.5355 5.71401C14.488 4.80901 14.3925 4.16651 14.25 3.78551C13.9645 3.04751 13.4525 2.53551 12.7145 2.25001C12.3335 2.10701 11.6905 2.01201 10.786 1.96451C10.262 1.94051 9.524 1.92901 8.5715 1.92901H7.4285C6.476 1.92901 5.738 1.94101 5.214 1.96451C4.333 2.01201 3.69 2.10751 3.2855 2.25001C2.5475 2.53551 2.0355 3.04751 1.75 3.78551C1.607 4.16651 1.512 4.80951 1.4645 5.71401C1.4405 6.23801 1.429 6.97601 1.429 7.92851V9.07151C1.429 10.024 1.441 10.762 1.4645 11.286C1.512 12.167 1.6075 12.81 1.75 13.2145C2.0595 13.9525 2.5715 14.4645 3.2855 14.75C3.6905 14.893 4.333 14.988 5.214 15.0355C5.738 15.0595 6.476 15.071 7.4285 15.071H8.5715C9.5475 15.071 10.286 15.059 10.786 15.0355C11.691 14.988 12.3335 14.8925 12.7145 14.75C13.4525 14.4405 13.9645 13.9285 14.25 13.2145Z" fill="white"/>
</g>
<defs>
<clipPath id="clip0">
<rect width="16" height="16" fill="white" transform="translate(0 0.5)"/>
</clipPath>
</defs>
</svg>
