<svg width="32" height="29" viewBox="0 0 32 29" fill="none" xmlns="http://www.w3.org/2000/svg">
<path d="M28.505 14.367C26.96 14.344 25.515 13.598 24.601 12.352C24.538 12.268 24.439 12.219 24.334 12.219C24.229 12.219 24.13 12.268 24.067 12.352C23.169 13.616 21.714 14.367 20.163 14.367C18.612 14.367 17.157 13.616 16.259 12.352C16.196 12.268 16.097 12.219 15.992 12.219C15.887 12.219 15.788 12.268 15.725 12.352C14.813 13.595 13.372 14.341 11.83 14.367C10.284 14.344 8.83899 13.599 7.92499 12.352C7.86199 12.268 7.76299 12.219 7.65799 12.219C7.55299 12.219 7.45399 12.268 7.39099 12.352C6.47799 13.596 5.03499 14.342 3.49199 14.367C3.32099 14.367 3.14999 14.357 2.97999 14.338C2.88499 14.327 2.79099 14.357 2.71999 14.42C2.64899 14.483 2.60899 14.574 2.60899 14.67V26.701C2.60899 27.806 3.50399 28.701 4.60899 28.701H27.276C28.381 28.701 29.276 27.806 29.276 26.701V14.68C29.276 14.586 29.236 14.497 29.167 14.433C29.098 14.369 29.005 14.339 28.912 14.348C28.776 14.36 28.64 14.368 28.503 14.368L28.505 14.367ZM19.943 18.513C19.958 18.233 20.196 18.018 20.476 18.032H24.743C25.023 18.018 25.261 18.233 25.276 18.513V25.365C25.276 25.733 24.978 26.032 24.609 26.032H20.609C20.241 26.032 19.942 25.734 19.942 25.365V18.513H19.943ZM7.27599 18.476C7.29199 18.216 7.51499 18.018 7.77499 18.032H14.771C15.031 18.018 15.255 18.216 15.271 18.476V22.921C15.255 23.181 15.031 23.379 14.771 23.365H7.77499C7.51499 23.379 7.29199 23.181 7.27599 22.921V18.476ZM28.505 12.367C26.579 12.166 25.169 10.46 25.333 8.53098C25.333 7.97898 24.885 7.53098 24.333 7.53098C23.781 7.53098 23.333 7.97898 23.333 8.53098C23.498 10.458 22.092 12.163 20.169 12.367C18.244 12.165 16.835 10.459 17 8.53098C17 7.97898 16.552 7.53098 16 7.53098C15.448 7.53098 15 7.97898 15 8.53098C15.165 10.459 13.756 12.164 11.832 12.367C9.90899 12.163 8.50199 10.458 8.66699 8.53098C8.66699 7.97898 8.21899 7.53098 7.66699 7.53098C7.11499 7.53098 6.66699 7.97898 6.66699 8.53098C6.83099 10.46 5.42099 12.166 3.49499 12.367C2.06399 12.273 0.85999 11.26 0.52399 9.86598C0.34099 9.26998 0.34699 8.63098 0.53999 8.03798L2.93599 0.746979C2.98599 0.517979 3.16999 0.341979 3.40099 0.302979H28.593C28.824 0.341979 29.008 0.517979 29.058 0.746979L31.458 8.03998C31.652 8.63198 31.658 9.27098 31.475 9.86698C31.138 11.261 29.935 12.273 28.504 12.367H28.505Z" fill="#3C4196"/>
</svg>
