<svg width="16" height="17" viewBox="0 0 16 17" fill="none" xmlns="http://www.w3.org/2000/svg">
<g clip-path="url(#clip0)">
<path d="M16 8.50001C16 9.94101 15.64 11.274 14.9195 12.5C14.199 13.726 13.226 14.699 12 15.4195C10.774 16.14 9.44099 16.5 7.99999 16.5C7.18299 16.5 6.39799 16.3815 5.64499 16.145C6.16099 15.285 6.48349 14.586 6.61249 14.048L7.12849 12.145C7.25749 12.403 7.49399 12.618 7.83799 12.79C8.18199 12.962 8.55849 13.048 8.96699 13.048C9.74099 13.048 10.4455 12.8275 11.08 12.3865C11.7145 11.9455 12.209 11.349 12.564 10.596C12.919 9.84351 13.0965 9.02051 13.0965 8.12851C13.0965 7.23651 12.8815 6.43501 12.4515 5.72551C12.0215 5.01601 11.43 4.46201 10.6775 4.06401C9.92499 3.66601 9.08599 3.46701 8.16149 3.46701C7.06449 3.46701 6.09699 3.69301 5.25849 4.14451C4.50599 4.57451 3.91999 5.16051 3.50049 5.90251C3.08099 6.64451 2.87149 7.44551 2.87149 8.30551C2.87149 8.92901 3.02749 9.54751 3.33899 10.1605C3.65049 10.7735 4.04349 11.1875 4.51649 11.4025C4.66699 11.467 4.75299 11.435 4.77449 11.3055L5.00049 10.4025C5.02199 10.3165 5.00049 10.241 4.93599 10.1765C4.76399 9.96151 4.62399 9.68701 4.51649 9.35401C4.40899 9.02101 4.35499 8.68201 4.35499 8.33801C4.35499 7.73601 4.49999 7.17151 4.79049 6.64451C5.08099 6.11751 5.49499 5.69301 6.03249 5.37051C6.59149 5.02651 7.23699 4.85451 7.96799 4.85451C8.95699 4.85451 9.76349 5.16101 10.3875 5.77401C11.0115 6.38701 11.323 7.16651 11.323 8.11251C11.323 9.18801 11.081 10.0695 10.597 10.7575C10.113 11.4455 9.51649 11.79 8.80649 11.79C8.39799 11.79 8.07549 11.645 7.83899 11.3545C7.60249 11.064 7.52699 10.7255 7.61299 10.3385C7.65599 10.102 7.75299 9.75801 7.90349 9.30601C8.13999 8.51051 8.25849 7.95651 8.25849 7.64451C8.25849 7.33251 8.17249 7.07451 8.00049 6.87051C7.82849 6.66601 7.58099 6.56401 7.25849 6.56401C6.84999 6.56401 6.50599 6.74701 6.22599 7.11251C5.94599 7.47801 5.80649 7.94051 5.80649 8.49951C5.80649 8.97251 5.88199 9.37051 6.03249 9.69301L5.12949 13.6605C5.00049 14.198 4.98949 14.9615 5.09699 15.951C3.56999 15.3705 2.33899 14.4025 1.40349 13.048C0.467988 11.6935 0.000488281 10.177 0.000488281 8.49951C0.000488281 7.05851 0.360488 5.72551 1.08099 4.49951C1.80149 3.27351 2.77449 2.30051 4.00049 1.58001C5.22649 0.859512 6.55949 0.499512 8.00049 0.499512C9.44149 0.499512 10.7745 0.859512 12.0005 1.58001C13.2265 2.30051 14.1995 3.27351 14.92 4.49951C15.6405 5.72551 16.0005 7.05851 16.0005 8.49951L16 8.50001Z" fill="white"/>
</g>
<defs>
<clipPath id="clip0">
<rect width="16" height="16" fill="white" transform="translate(0 0.5)"/>
</clipPath>
</defs>
</svg>
