<svg width="26" height="25" viewBox="0 0 26 25" fill="none" xmlns="http://www.w3.org/2000/svg">
<path d="M14.0708 17.0325L10.8499 4.39796L19.0244 2.44946L22.2453 15.084L14.0708 17.0325ZM13.7206 20.2267C13.7214 20.2297 13.723 20.2335 13.7237 20.2365C13.9793 21.1912 13.3556 22.158 12.331 22.3957C11.3063 22.6335 10.2692 22.053 10.0136 21.0982C9.75801 20.1435 10.3817 19.1767 11.4064 18.939C11.4134 18.9375 11.4212 18.936 11.4282 18.9345L8.44496 7.95296H6.5043C5.9994 7.95296 5.59064 7.56071 5.59064 7.07621C5.59064 6.59171 5.9994 6.19946 6.5043 6.19946H7.75014C9.02255 6.19946 10.134 7.02371 10.4552 8.20496L13.2587 18.5265L21.7857 16.5937C22.2797 16.482 22.776 16.7715 22.8987 17.244C22.8995 17.2477 22.901 17.2515 22.9018 17.2552C23.0167 17.721 22.7158 18.1875 22.2305 18.2977L13.7206 20.2267ZM2.95281 10.7827H6.47538C6.95527 10.7827 7.34372 11.1555 7.34372 11.616C7.34372 12.0765 6.95527 12.4492 6.47538 12.4492H2.95281C2.47292 12.4492 2.08447 12.0765 2.08447 11.616C2.08447 11.1555 2.47292 10.7827 2.95281 10.7827ZM2.95281 13.2825H7.35153C7.83142 13.2825 8.21987 13.6552 8.21987 14.1157C8.21987 14.5762 7.83142 14.949 7.35153 14.949H2.95281C2.47292 14.949 2.08447 14.5762 2.08447 14.1157C2.08447 13.6552 2.47292 13.2825 2.95281 13.2825ZM2.95281 15.7822H8.22846C8.70835 15.7822 9.0968 16.155 9.0968 16.6155C9.0968 17.076 8.70835 17.4487 8.22846 17.4487H2.95281C2.47292 17.4487 2.08447 17.076 2.08447 16.6155C2.08447 16.155 2.47292 15.7822 2.95281 15.7822Z" fill="white"/>
</svg>
