<svg width="33" height="33" viewBox="0 0 33 33" fill="none" xmlns="http://www.w3.org/2000/svg">
<path d="M17.833 16.346C18.343 16.346 18.756 16.759 18.756 17.269C18.756 17.779 18.343 18.192 17.833 18.192H15.371C14.861 18.192 14.448 17.779 14.448 17.269C14.448 16.759 14.861 16.346 15.371 16.346H17.833ZM16.603 4.65403C16.093 4.65403 15.68 4.24103 15.68 3.73103V2.50003C15.68 1.99003 16.093 1.57703 16.603 1.57703C17.113 1.57703 17.526 1.99003 17.526 2.50003V3.73103C17.526 4.24103 17.113 4.65403 16.603 4.65403ZM10.449 8.34603C10.959 8.34603 11.372 8.75903 11.372 9.26903C11.372 9.77903 10.959 10.192 10.449 10.192H8.97196C8.46196 10.192 8.04896 9.77903 8.04896 9.26903C8.04896 8.75903 8.46196 8.34603 8.97196 8.34603H10.449ZM23.987 10.192H22.756C22.246 10.192 21.833 9.77903 21.833 9.26903C21.833 8.75903 22.246 8.34603 22.756 8.34603H23.987C24.497 8.34603 24.91 8.75903 24.91 9.26903C24.91 9.77903 24.497 10.192 23.987 10.192ZM12.332 4.92303C12.572 5.15503 12.668 5.49803 12.584 5.82103C12.5 6.14403 12.248 6.39603 11.925 6.48103C11.602 6.56603 11.259 6.47003 11.027 6.23003L9.79596 4.99903C9.55596 4.76703 9.45996 4.42403 9.54396 4.10103C9.62796 3.77803 9.87996 3.52603 10.203 3.44103C10.526 3.35603 10.869 3.45203 11.101 3.69203L12.332 4.92303ZM23.409 4.99803L22.178 6.22903C21.946 6.46903 21.603 6.56503 21.28 6.48003C20.957 6.39503 20.705 6.14303 20.621 5.82003C20.537 5.49703 20.633 5.15403 20.873 4.92203L22.104 3.69103C22.336 3.45103 22.679 3.35503 23.002 3.44003C23.325 3.52503 23.577 3.77703 23.661 4.10003C23.745 4.42303 23.649 4.76603 23.409 4.99803ZM16.603 5.26903C19.123 5.33203 21.152 7.35903 21.218 9.87903C21.203 11.242 20.569 12.523 19.495 13.362C19.417 13.42 19.372 13.511 19.372 13.608V14.196C19.372 14.706 18.959 15.119 18.449 15.119H14.757C14.247 15.119 13.834 14.706 13.834 14.196V13.613C13.834 13.516 13.789 13.425 13.711 13.367C12.637 12.528 12.003 11.247 11.988 9.88403C12.051 7.36203 14.081 5.33203 16.603 5.26903ZM27.064 17.269C25.365 17.269 23.987 15.891 23.987 14.192C23.987 12.493 25.365 11.115 27.064 11.115C28.763 11.115 30.141 12.493 30.141 14.192C30.141 15.891 28.763 17.269 27.064 17.269ZM27.064 17.885C29.443 17.885 31.372 19.814 31.372 22.193V24.655C31.372 24.995 31.096 25.27 30.757 25.27H29.749C29.591 25.27 29.459 25.39 29.444 25.547L28.911 30.869C28.88 31.185 28.613 31.426 28.296 31.424H25.834C25.516 31.426 25.25 31.185 25.219 30.869L24.69 25.547C24.675 25.39 24.543 25.27 24.385 25.27H23.373C23.033 25.27 22.758 24.994 22.758 24.655V22.193C22.758 19.814 24.687 17.885 27.066 17.885H27.064ZM6.14096 17.269C4.44196 17.269 3.06396 15.891 3.06396 14.192C3.06396 12.493 4.44196 11.115 6.14096 11.115C7.83996 11.115 9.21796 12.493 9.21796 14.192C9.21796 15.891 7.83996 17.269 6.14096 17.269ZM6.14096 17.885C8.51996 17.885 10.449 19.814 10.449 22.193V24.655C10.449 24.995 10.173 25.27 9.83396 25.27H8.82196C8.66396 25.27 8.53196 25.39 8.51696 25.547L7.98796 30.869C7.95696 31.185 7.68996 31.426 7.37296 31.424H4.91096C4.59296 31.426 4.32696 31.185 4.29596 30.869L3.76696 25.547C3.75196 25.39 3.61996 25.27 3.46196 25.27H2.44996C2.10996 25.27 1.83496 24.994 1.83496 24.655V22.193C1.83496 19.814 3.76396 17.885 6.14296 17.885H6.14096Z" fill="#3C4196"/>
</svg>
