<svg width="16" height="17" viewBox="0 0 16 17" fill="none" xmlns="http://www.w3.org/2000/svg">
<g clip-path="url(#clip0)">
<path d="M16 2.21449V14.786C16 15.262 15.8335 15.667 15.5 16.0005C15.1665 16.334 14.762 16.5005 14.2855 16.5005H11.25V10.179H13.393L13.7145 7.75049H11.25V6.21499C11.25 5.83399 11.3215 5.54849 11.4645 5.35799C11.655 5.14349 11.9765 5.03649 12.429 5.03649H13.7145V2.89349C13.2145 2.82199 12.5955 2.78649 11.8575 2.78649C10.905 2.78649 10.149 3.06649 9.5895 3.62599C9.03 4.18549 8.75 4.96549 8.75 5.96549V7.75099H6.5715V10.1795H8.75V16.501H1.7145C1.2385 16.501 0.8335 16.3345 0.5 16.001C0.1665 15.6675 0 15.263 0 14.7865V2.21499C0 1.73899 0.1665 1.33399 0.5 1.00049C0.8335 0.666988 1.238 0.500488 1.7145 0.500488H14.286C14.762 0.500488 15.167 0.666988 15.5005 1.00049C15.834 1.33399 16.0005 1.73849 16.0005 2.21499L16 2.21449Z" fill="white"/>
</g>
<defs>
<clipPath id="clip0">
<rect width="16" height="16" fill="white" transform="translate(0 0.5)"/>
</clipPath>
</defs>
</svg>
