<svg width="169" height="39" viewBox="0 0 169 39" fill="none" xmlns="http://www.w3.org/2000/svg">
<path d="M67.7664 11.1368C63.8509 11.1368 61.1718 12.332 59.19 14.9902C57.6416 12.6578 54.4864 11.1368 51.0556 11.1368C48.0052 11.1368 45.9849 11.9102 43.9663 13.9294V13.7971C43.9663 13.0841 43.6767 12.4004 43.1611 11.8962C42.6456 11.3921 41.9463 11.1089 41.2172 11.1089V11.1089C40.4881 11.1089 39.7888 11.3921 39.2733 11.8962C38.7577 12.4004 38.4681 13.0841 38.4681 13.7971V35.9875C38.4681 36.7496 38.7777 37.4805 39.3288 38.0194C39.8799 38.5583 40.6274 38.8611 41.4068 38.8611C42.1862 38.8611 42.9336 38.5583 43.4847 38.0194C44.0359 37.4805 44.3455 36.7496 44.3455 35.9875V23.4911C44.3455 18.6992 46.2391 16.4671 50.3056 16.4671C53.9165 16.4671 55.7472 18.6599 55.7472 22.9832V35.9875C55.7472 36.7496 56.0568 37.4805 56.6079 38.0194C57.159 38.5583 57.9065 38.8611 58.6859 38.8611C59.4653 38.8611 60.2127 38.5583 60.7638 38.0194C61.315 37.4805 61.6246 36.7496 61.6246 35.9875V23.4454C61.6246 18.5543 63.3365 16.4671 67.3484 16.4671C71.1149 16.4671 73.0255 18.8461 73.0255 23.5377V35.9875C73.0255 36.7496 73.3351 37.4805 73.8862 38.0194C74.4373 38.5583 75.1848 38.8611 75.9642 38.8611C76.7435 38.8611 77.491 38.5583 78.0421 38.0194C78.5932 37.4805 78.9028 36.7496 78.9028 35.9875V22.3409C78.8942 15.327 74.7345 11.1368 67.7664 11.1368Z" fill="#3C4196" fill-opacity="0.87"/>
<path d="M113.475 11.1368C109.56 11.1368 106.881 12.332 104.899 14.9902C103.351 12.6578 100.196 11.1368 96.7647 11.1368C93.7143 11.1368 91.6941 11.9102 89.6755 13.9294V13.7971C89.6755 13.0841 89.3858 12.4004 88.8703 11.8962C88.3547 11.3921 87.6555 11.1089 86.9264 11.1089V11.1089C86.1973 11.1089 85.498 11.3921 84.9824 11.8962C84.4669 12.4004 84.1772 13.0841 84.1772 13.7971V35.9875C84.1772 36.7496 84.4869 37.4805 85.038 38.0194C85.5891 38.5583 86.3365 38.8611 87.1159 38.8611C87.8953 38.8611 88.6428 38.5583 89.1939 38.0194C89.745 37.4805 90.0546 36.7496 90.0546 35.9875V23.4911C90.0546 18.6992 91.9482 16.4671 96.0147 16.4671C99.6256 16.4671 101.456 18.6599 101.456 22.9832V35.9875C101.456 36.7496 101.766 37.4805 102.317 38.0194C102.868 38.5583 103.616 38.8611 104.395 38.8611C105.174 38.8611 105.922 38.5583 106.473 38.0194C107.024 37.4805 107.334 36.7496 107.334 35.9875V23.4454C107.334 18.5543 109.046 16.4671 113.057 16.4671C116.824 16.4671 118.734 18.8461 118.734 23.5377V35.9875C118.734 36.7496 119.044 37.4805 119.595 38.0194C120.146 38.5583 120.894 38.8611 121.673 38.8611C122.453 38.8611 123.2 38.5583 123.751 38.0194C124.302 37.4805 124.612 36.7496 124.612 35.9875V22.3409C124.604 15.327 120.443 11.1368 113.475 11.1368Z" fill="#3C4196" fill-opacity="0.87"/>
<path d="M151.304 13.8452V14.6179C149.248 12.3352 146.288 11.1372 142.662 11.1372C134.6 11.1372 128.521 17.2996 128.521 25.4711C128.521 33.018 134.815 38.9299 142.85 38.9299C146.349 38.9299 149.356 37.6032 151.304 35.2444V36.1049C151.304 36.867 151.614 37.5979 152.165 38.1368C152.716 38.6757 153.463 38.9785 154.243 38.9785V38.9785C155.022 38.9785 155.77 38.6757 156.321 38.1368C156.872 37.5979 157.181 36.867 157.181 36.1049V13.8448C157.181 13.132 156.891 12.4484 156.375 11.9446C155.859 11.4408 155.16 11.1579 154.431 11.1583H154.054C153.693 11.1581 153.336 11.2275 153.002 11.3624C152.669 11.4974 152.365 11.6952 152.11 11.9448C151.855 12.1943 151.652 12.4905 151.514 12.8166C151.375 13.1427 151.304 13.4922 151.304 13.8452ZM151.398 25.1024C151.398 29.7875 147.542 33.5992 142.803 33.5992C138.246 33.5992 134.396 29.7082 134.396 25.1024C134.396 20.3411 138.167 16.4671 142.803 16.4671C147.703 16.4671 151.398 20.1792 151.398 25.1024Z" fill="#3C4196" fill-opacity="0.87"/>
<path d="M30.396 29.6026L30.3724 29.6002C29.377 29.4743 28.6075 29.9887 27.5422 30.699C25.9747 31.7448 24.024 33.0464 20.2521 33.2019C16.5502 33.2423 13.2643 32.0998 10.7403 29.8875C8.4738 27.9007 6.74494 25.1069 6.17458 22.0213C5.10879 16.2579 7.69028 9.2108 15.4869 6.46351C17.0201 5.96569 18.6326 5.74275 20.2468 5.80542C23.1855 5.92077 25.9627 6.95808 28.2822 8.80486C28.8635 9.26491 29.6061 9.48366 30.3506 9.41411C31.095 9.34456 31.7818 8.99227 32.2635 8.43291C32.9767 7.48059 33.1273 6.54445 32.7018 5.59982C31.2983 2.47936 24.3315 0.415655 21.9206 0.157844C21.1149 0.0527022 20.303 -2.80866e-05 19.4902 1.12231e-08C14.8959 1.12232e-08 10.3769 1.67881 6.7975 4.77134C2.42713 8.54583 -0.0496469 13.9158 0.00209062 19.5034C-0.0670307 23.9801 1.57988 28.4342 4.64067 32.0557C7.71801 35.6982 11.8723 38.0695 16.3391 38.7337C17.3839 38.9111 18.4422 39.0002 19.5026 39C24.0749 39 28.4908 37.4114 31.937 34.5269C32.826 33.8316 33.1513 32.7081 32.7987 31.5846C32.4415 30.4489 31.5214 29.69 30.396 29.6026Z" fill="#3C4196" fill-opacity="0.87"/>
<path d="M28.0582 15.875C27.6791 15.9455 27.318 16.0888 26.9959 16.2967C26.6738 16.5045 26.397 16.7728 26.1816 17.0859C25.7275 17.7442 25.115 18.2834 24.398 18.6561C23.681 19.0289 22.8814 19.2238 22.0693 19.2238C21.2573 19.2238 20.4576 19.0289 19.7406 18.6561C19.0236 18.2834 18.4112 17.7442 17.957 17.0859C17.7416 16.7728 17.4648 16.5046 17.1427 16.2968C16.8206 16.089 16.4595 15.9458 16.0804 15.8754C15.895 15.8405 15.7067 15.8228 15.5179 15.8228C14.9851 15.8242 14.4628 15.9673 14.0068 16.2366C13.5508 16.5059 13.1782 16.8914 12.929 17.3518C12.6797 17.8123 12.5631 18.3303 12.5917 18.8505C12.6203 19.3707 12.7929 19.8735 13.0912 20.3051C14.0835 21.7412 15.4209 22.9173 16.9862 23.7303C18.5515 24.5434 20.2969 24.9685 22.0693 24.9685C23.8417 24.9685 25.5871 24.5434 27.1524 23.7303C28.7177 22.9173 30.0551 21.7412 31.0474 20.3051C31.3725 19.8345 31.5477 19.2802 31.5509 18.7123C31.5541 18.1444 31.3851 17.5882 31.0652 17.1142C30.7454 16.6401 30.2891 16.2693 29.7539 16.0487C29.2187 15.8281 28.6286 15.7675 28.0582 15.8746V15.875Z" fill="#3C4196" fill-opacity="0.87"/>
<path d="M166.663 34.4093C166.663 33.8427 166.267 33.3267 165.299 33.3267H163.975V36.987H164.579V35.5178H165.258L166.151 36.987H166.852L165.863 35.4341C166.401 35.2718 166.663 34.9059 166.663 34.4093ZM164.577 35.0261V33.839H165.364C165.781 33.839 166.038 34.0325 166.038 34.4146C166.038 34.8954 165.711 35.0261 165.353 35.0261H164.577Z" fill="#3C4196" fill-opacity="0.87"/>
<path d="M165.198 31.7156C164.486 31.716 163.79 31.9228 163.198 32.3098C162.606 32.6968 162.145 33.2467 161.873 33.89C161.6 34.5332 161.529 35.241 161.668 35.9238C161.807 36.6066 162.15 37.2339 162.653 37.7262C163.157 38.2186 163.798 38.5539 164.496 38.69C165.195 38.826 165.919 38.7565 166.576 38.4904C167.234 38.2243 167.797 37.7734 168.193 37.1948C168.589 36.6161 168.8 35.9357 168.801 35.2395C168.8 34.3053 168.42 33.4096 167.745 32.7489C167.069 32.0883 166.153 31.7166 165.198 31.7156V31.7156ZM165.198 38.2499C164.589 38.2499 163.993 38.0732 163.487 37.7423C162.98 37.4114 162.586 36.941 162.352 36.3907C162.119 35.8404 162.058 35.2348 162.177 34.6506C162.296 34.0664 162.589 33.5298 163.02 33.1087C163.451 32.6875 164 32.4007 164.597 32.2846C165.195 32.1684 165.814 32.2281 166.377 32.4561C166.94 32.6841 167.421 33.0702 167.759 33.5655C168.097 34.0608 168.278 34.6431 168.278 35.2387C168.277 36.0371 167.952 36.8025 167.375 37.367C166.797 37.9315 166.014 38.249 165.198 38.2499V38.2499Z" fill="#3C4196" fill-opacity="0.87"/>
</svg>
