<svg width="66" height="30" viewBox="0 0 66 30" fill="none" xmlns="http://www.w3.org/2000/svg">
<path d="M27.7335 12.7124H32.8009L33.4367 14.2705H37.2527L30.4314 0.400391H30.1247L23.3034 14.2705H27.1007L27.7357 12.7102L27.7335 12.7124ZM30.2773 6.56647L31.6827 10.0145H28.851L30.2773 6.56647ZM48.1967 11.1881H41.9327V0.786311H38.2707V14.2705H48.1967V11.1881ZM4.00305 10.3601H5.25153L7.50513 14.2705H11.5703L8.68089 9.60775C9.42886 9.23709 10.0571 8.66291 10.4933 7.95119C10.9295 7.23947 11.1561 6.41911 11.1469 5.58439C11.1469 2.84839 8.91489 0.787751 5.36673 0.787751H0.33897V14.2705H4.00017L4.00305 10.3601ZM4.00305 3.59863H4.96281C6.90681 3.59863 7.41081 4.73479 7.41081 5.56279C7.41081 6.39079 6.92913 7.54711 4.96281 7.54711H4.00017V3.59935L4.00305 3.59863ZM22.263 11.1881H16.3871V9.20455H21.2989V6.39151H16.3871V3.86791H22.07V0.786311H12.7266V14.2705H22.2623L22.263 11.1881ZM47.6502 23.8054H52.562V20.9924H47.6502V18.4724H53.3331V15.3865H43.989V28.8721H53.5247V25.7919H47.6495L47.6502 23.8054ZM20.6207 15.002C19.6694 14.9717 18.7217 15.1329 17.8339 15.476C16.9461 15.8192 16.1363 16.3372 15.4527 16.9994C14.769 17.6616 14.2255 18.4545 13.8543 19.3309C13.483 20.2073 13.2917 21.1494 13.2917 22.1012C13.2917 23.053 13.483 23.9951 13.8543 24.8715C14.2255 25.7479 14.769 26.5407 15.4527 27.2029C16.1363 27.8652 16.9461 28.3832 17.8339 28.7263C18.7217 29.0695 19.6694 29.2307 20.6207 29.2004C24.6858 29.2004 27.9647 26.234 27.9647 22.1105C27.9667 21.1565 27.7763 20.2118 27.405 19.3329C27.0336 18.454 26.4889 17.6591 25.8034 16.9955C25.1178 16.332 24.3055 15.8134 23.4151 15.4709C22.5246 15.1284 21.5742 14.9689 20.6207 15.002V15.002ZM20.6207 25.9057C20.1307 25.9043 19.646 25.8039 19.1958 25.6105C18.7456 25.417 18.3391 25.1346 18.0009 24.7801C17.6626 24.4256 17.3995 24.0064 17.2273 23.5476C17.0551 23.0889 16.9775 22.6001 16.9991 22.1105C16.9713 21.619 17.0441 21.127 17.2131 20.6646C17.3821 20.2022 17.6437 19.7792 17.9818 19.4214C18.32 19.0636 18.7276 18.7785 19.1797 18.5837C19.6319 18.3889 20.119 18.2885 20.6113 18.2885C21.1036 18.2885 21.5907 18.3889 22.0429 18.5837C22.495 18.7785 22.9026 19.0636 23.2408 19.4214C23.5789 19.7792 23.8405 20.2022 24.0095 20.6646C24.1785 21.127 24.2513 21.619 24.2235 22.1105C24.2486 22.5994 24.174 23.0882 24.0043 23.5473C23.8346 24.0064 23.5734 24.4262 23.2364 24.7811C22.8994 25.1361 22.4937 25.4188 22.0441 25.6122C21.5944 25.8055 21.1101 25.9053 20.6207 25.9057V25.9057ZM8.59665 20.8592H3.97641V15.3872H0.31665V28.8713H3.97641V23.9401H8.60025V28.8713H12.26V15.3865H8.60097L8.59665 20.8592ZM61.112 20.4337C59.2818 19.8173 58.7627 19.5697 58.7627 18.9123C58.7627 18.2002 59.379 17.8532 60.3992 17.8532C60.9841 17.8572 61.5618 17.9826 62.0957 18.2214C62.6296 18.4602 63.1081 18.8073 63.501 19.2406L65.5242 17.2966C64.8964 16.5395 64.1014 15.9383 63.2019 15.5405C62.3023 15.1427 61.3227 14.9591 60.3402 15.0041C57.3738 15.0041 55.4283 16.4881 55.4283 19.1657C55.4283 22.3251 58.1262 22.9817 59.9363 23.5577C60.9961 23.8846 62.0559 24.2705 62.0559 25.0798C62.0559 25.7537 61.3619 26.3521 60.0716 26.3521C58.8375 26.3521 57.6438 25.8113 56.5069 24.29L54.2324 26.198C54.9042 27.1477 55.7988 27.9181 56.8377 28.4416C57.8766 28.9651 59.0281 29.2256 60.1911 29.2004C63.3512 29.2004 65.6826 27.5041 65.6826 24.7501C65.6826 21.8996 63.1583 21.1097 61.1156 20.4337H61.112ZM36.0488 21.3977L29.3679 15.002H29.0799V28.8713H32.6634V22.6484L35.8991 25.8653H36.2079L39.4429 22.6484V28.8699H43.0263V15.002H42.7383L36.0488 21.3977Z" fill="#2E2F3C"/>
</svg>
