<svg width="25" height="25" viewBox="0 0 25 25" fill="none" xmlns="http://www.w3.org/2000/svg">
<path d="M23.0952 13.4888V18.4888C23.0952 18.754 22.9899 19.0083 22.8023 19.1959C22.6148 19.3834 22.3604 19.4888 22.0952 19.4888H21.0952C21.0952 20.2844 20.7791 21.0475 20.2165 21.6101C19.6539 22.1727 18.8909 22.4888 18.0952 22.4888C17.2996 22.4888 16.5365 22.1727 15.9739 21.6101C15.4113 21.0475 15.0952 20.2844 15.0952 19.4888H9.09521C9.09521 20.2844 8.77914 21.0475 8.21654 21.6101C7.65393 22.1727 6.89086 22.4888 6.09521 22.4888C5.29957 22.4888 4.5365 22.1727 3.97389 21.6101C3.41129 21.0475 3.09521 20.2844 3.09521 19.4888H2.09521C1.83 19.4888 1.57564 19.3834 1.38811 19.1959C1.20057 19.0083 1.09521 18.754 1.09521 18.4888V6.48877C1.09521 5.69312 1.41129 4.93006 1.97389 4.36745C2.5365 3.80484 3.29957 3.48877 4.09521 3.48877H13.0952C13.8909 3.48877 14.6539 3.80484 15.2165 4.36745C15.7791 4.93006 16.0952 5.69312 16.0952 6.48877V8.48877H18.0952C18.561 8.48877 19.0203 8.59721 19.4369 8.80549C19.8534 9.01377 20.2158 9.31618 20.4952 9.68877L22.8952 12.8888C22.9245 12.9322 22.948 12.9793 22.9652 13.0288L23.0252 13.1388C23.0693 13.2503 23.0931 13.3688 23.0952 13.4888ZM7.09521 19.4888C7.09521 19.291 7.03657 19.0976 6.92669 18.9332C6.8168 18.7688 6.66062 18.6406 6.4779 18.5649C6.29517 18.4892 6.0941 18.4694 5.90012 18.508C5.70614 18.5466 5.52796 18.6418 5.38811 18.7817C5.24825 18.9215 5.15302 19.0997 5.11443 19.2937C5.07584 19.4877 5.09565 19.6887 5.17134 19.8715C5.24702 20.0542 5.37519 20.2104 5.53964 20.3202C5.70409 20.4301 5.89743 20.4888 6.09521 20.4888C6.36043 20.4888 6.61479 20.3834 6.80232 20.1959C6.98986 20.0083 7.09521 19.754 7.09521 19.4888ZM14.0952 6.48877C14.0952 6.22355 13.9899 5.9692 13.8023 5.78166C13.6148 5.59413 13.3604 5.48877 13.0952 5.48877H4.09521C3.83 5.48877 3.57564 5.59413 3.38811 5.78166C3.20057 5.9692 3.09521 6.22355 3.09521 6.48877V17.4888H3.87522C4.1564 17.1794 4.49913 16.9322 4.88143 16.7631C5.26373 16.594 5.67717 16.5066 6.09521 16.5066C6.51326 16.5066 6.92669 16.594 7.309 16.7631C7.6913 16.9322 8.03403 17.1794 8.31522 17.4888H14.0952V6.48877ZM16.0952 12.4888H20.0952L18.8952 10.8888C18.8021 10.7646 18.6813 10.6638 18.5424 10.5943C18.4036 10.5249 18.2505 10.4888 18.0952 10.4888H16.0952V12.4888ZM19.0952 19.4888C19.0952 19.291 19.0366 19.0976 18.9267 18.9332C18.8168 18.7688 18.6606 18.6406 18.4779 18.5649C18.2952 18.4892 18.0941 18.4694 17.9001 18.508C17.7061 18.5466 17.528 18.6418 17.3881 18.7817C17.2483 18.9215 17.153 19.0997 17.1144 19.2937C17.0758 19.4877 17.0956 19.6887 17.1713 19.8715C17.247 20.0542 17.3752 20.2104 17.5396 20.3202C17.7041 20.4301 17.8974 20.4888 18.0952 20.4888C18.3604 20.4888 18.6148 20.3834 18.8023 20.1959C18.9899 20.0083 19.0952 19.754 19.0952 19.4888ZM21.0952 14.4888H16.0952V17.2688C16.6854 16.7413 17.4601 16.4685 18.2505 16.5097C19.041 16.5509 19.7831 16.9028 20.3152 17.4888H21.0952V14.4888Z" fill="#2E2F3C"/>
</svg>
