<svg width="16" height="14" viewBox="0 0 16 14" fill="none" xmlns="http://www.w3.org/2000/svg">
<path d="M14.4651 7.74968C14.2662 7.74968 14.0754 7.82869 13.9348 7.96935C13.7941 8.11 13.7151 8.30076 13.7151 8.49968V11.4997C13.7151 11.6986 13.6361 11.8894 13.4954 12.03C13.3548 12.1707 13.164 12.2497 12.9651 12.2497H2.46509C2.26618 12.2497 2.07541 12.1707 1.93476 12.03C1.79411 11.8894 1.71509 11.6986 1.71509 11.4997V4.30718L6.12509 8.72468C6.54602 9.14217 7.11472 9.37666 7.70759 9.37718C8.0078 9.37793 8.30514 9.3186 8.58207 9.20267C8.859 9.08675 9.10994 8.91658 9.32009 8.70218L9.98759 8.04218C10.0903 7.89734 10.1383 7.72076 10.123 7.54386C10.1078 7.36696 10.0302 7.20121 9.90423 7.07611C9.77822 6.95101 9.61193 6.87467 9.43492 6.86067C9.25792 6.84668 9.08169 6.89593 8.93759 6.99968L8.24009 7.68218C8.09989 7.8196 7.9114 7.89657 7.71509 7.89657C7.51877 7.89657 7.33029 7.8196 7.19009 7.68218L2.77259 3.24968H6.21509C6.414 3.24968 6.60477 3.17066 6.74542 3.03001C6.88607 2.88935 6.96509 2.69859 6.96509 2.49968C6.96509 2.30076 6.88607 2.11 6.74542 1.96935C6.60477 1.82869 6.414 1.74968 6.21509 1.74968H2.46509C1.86835 1.74968 1.29605 1.98673 0.874098 2.40869C0.452141 2.83064 0.215088 3.40294 0.215088 3.99968V11.4997C0.215088 12.0964 0.452141 12.6687 0.874098 13.0907C1.29605 13.5126 1.86835 13.7497 2.46509 13.7497H12.9651C13.5618 13.7497 14.1341 13.5126 14.5561 13.0907C14.978 12.6687 15.2151 12.0964 15.2151 11.4997V8.49968C15.2151 8.30076 15.1361 8.11 14.9954 7.96935C14.8548 7.82869 14.664 7.74968 14.4651 7.74968ZM15.2526 0.999676C14.8726 0.633311 14.3863 0.39677 13.8634 0.324007C13.3406 0.251244 12.8082 0.346001 12.3426 0.594676C11.8295 0.312493 11.232 0.224444 10.6593 0.346632C10.0866 0.46882 9.5771 0.793079 9.22388 1.2601C8.87065 1.72713 8.69735 2.3057 8.73568 2.89C8.774 3.47431 9.02139 4.02529 9.43259 4.44218L11.8401 6.78218C11.9838 6.91923 12.174 6.99691 12.3726 6.99968C12.4713 7.00025 12.5691 6.98133 12.6605 6.944C12.7519 6.90668 12.835 6.85169 12.9051 6.78218L15.2826 4.40468C15.7212 3.94457 15.9634 3.33174 15.9578 2.69609C15.9522 2.06045 15.6992 1.45198 15.2526 0.999676ZM14.1951 3.33968L12.3426 5.19218L10.4976 3.33968C10.4109 3.25153 10.3425 3.14717 10.2961 3.03256C10.2498 2.91795 10.2265 2.79534 10.2275 2.67172C10.2296 2.42206 10.3308 2.18347 10.5088 2.00843C10.6869 1.83338 10.9271 1.73623 11.1768 1.73834C11.4265 1.74045 11.665 1.84165 11.8401 2.01968C11.9098 2.08997 11.9928 2.14577 12.0842 2.18384C12.1756 2.22192 12.2736 2.24152 12.3726 2.24152C12.4716 2.24152 12.5696 2.22192 12.661 2.18384C12.7524 2.14577 12.8354 2.08997 12.9051 2.01968C13.0834 1.85088 13.3196 1.75681 13.5651 1.75681C13.8106 1.75681 14.0468 1.85088 14.2251 2.01968C14.3934 2.20007 14.4845 2.43914 14.4789 2.68578C14.4732 2.93243 14.3714 3.16711 14.1951 3.33968Z" fill="white"/>
</svg>
