<svg width="48" height="30" viewBox="0 0 48 30" fill="none" xmlns="http://www.w3.org/2000/svg">
<path d="M47.1729 13.5152C47.9483 9.28375 44.6802 7.48951 35.4534 7.48951C33.7585 7.47426 32.0643 7.56299 30.3803 7.75519L31.6871 0.400391H0.716309V8.59759H9.50031L5.86719 29.2004H16.3238L19.9684 8.59759H26.5924C23.8895 9.55015 22.1176 11.145 21.4746 13.7038H30.4466C31.1334 12.829 31.5539 12.5965 34.4454 12.5965C37.7682 12.5965 38.1786 13.3719 38.0231 14.2798C37.8899 15.0553 37.3478 15.7198 35.4311 15.7198L30.8786 15.7306L29.9922 20.6598H34.1682C36.339 20.6598 37.4248 21.0363 37.203 22.3654C37.0144 23.3626 36.3614 24.4261 32.4402 24.4261C30.6791 24.4261 29.5271 24.2713 28.8626 23.8609C28.5578 23.6979 28.3117 23.4436 28.1587 23.1338C28.0057 22.8239 27.9535 22.4739 28.0094 22.1329H19.2146C18.7271 26.5861 21.2752 28.4358 24.8414 29.1997H38.3558C43.5066 28.1809 45.6551 25.7768 46.1764 22.7859C46.6415 20.083 45.2901 18.4659 42.7427 17.8676V17.7898C46.0439 17.0698 46.8964 15.2425 47.1736 13.5145" fill="#2E2F3C"/>
</svg>
