<svg width="37" height="38" viewBox="0 0 37 38" fill="none" xmlns="http://www.w3.org/2000/svg">
    <path d="M18.5 37C28.4411 37 36.5 28.9411 36.5 19C36.5 9.05888 28.4411 1 18.5 1C8.55888 1 0.5 9.05888 0.5 19C0.5 28.9411 8.55888 37 18.5 37Z"
          stroke="#3C4196" stroke-miterlimit="10"/>
    <path d="M13.657 21.6729C13.5136 21.8018 13.338 21.8895 13.1488 21.9267C12.9596 21.9639 12.7639 21.9492 12.5824 21.8841L10.678 21.2067C10.4451 21.1238 10.1908 21.1238 9.95797 21.2067L8.05417 21.8841C7.88983 21.9429 7.71361 21.9608 7.5408 21.9361C7.368 21.9114 7.20383 21.8449 7.06254 21.7424C6.92125 21.6399 6.80711 21.5045 6.73002 21.3479C6.65293 21.1912 6.61522 21.0182 6.62017 20.8437L6.67597 18.8229C6.68255 18.5763 6.60394 18.3349 6.45337 18.1395L5.22337 16.5399C5.11699 16.4018 5.04587 16.2399 5.01617 16.0682C4.98647 15.8964 4.99909 15.72 5.05292 15.5543C5.10676 15.3885 5.2002 15.2384 5.32514 15.1168C5.45008 14.9953 5.60277 14.9061 5.76997 14.8569L7.70917 14.2851C7.94544 14.216 8.15073 14.0677 8.29057 13.8651L9.43057 12.1977C9.52911 12.054 9.66116 11.9365 9.81531 11.8553C9.96945 11.7741 10.141 11.7317 10.3153 11.7317C10.4895 11.7317 10.6611 11.7741 10.8152 11.8553C10.9694 11.9365 11.1014 12.054 11.2 12.1977L12.34 13.8651C12.4798 14.0677 12.6851 14.216 12.9214 14.2851L14.8606 14.8569C15.0928 14.9238 15.2956 15.0671 15.4362 15.2637C15.5768 15.4602 15.6469 15.6985 15.6352 15.9399"
          stroke="#3C4196" stroke-miterlimit="10"/>
    <path d="M21.365 15.9437C21.3514 15.702 21.4199 15.4628 21.5594 15.2649C21.699 15.0671 21.9013 14.9223 22.1336 14.8541L24.0722 14.2829C24.3085 14.2136 24.5139 14.0653 24.6542 13.8629L25.7942 12.1949C25.8928 12.0512 26.0249 11.9337 26.1791 11.8525C26.3333 11.7713 26.5049 11.7289 26.6792 11.7289C26.8534 11.7289 27.0251 11.7713 27.1793 11.8525C27.3335 11.9337 27.4656 12.0512 27.5642 12.1949L28.7042 13.8629C28.8444 14.0653 29.0498 14.2136 29.2862 14.2829L31.2248 14.8541C31.392 14.9034 31.5446 14.9927 31.6695 15.1143C31.7944 15.2358 31.8879 15.386 31.9417 15.5518C31.9956 15.7175 32.0083 15.8939 31.9787 16.0657C31.9492 16.2375 31.8782 16.3995 31.772 16.5377L30.539 18.1397C30.3886 18.3351 30.3102 18.5765 30.317 18.8231L30.3728 20.8439C30.3775 21.0181 30.3397 21.1908 30.2626 21.3472C30.1856 21.5035 30.0716 21.6387 29.9306 21.7412C29.7896 21.8436 29.6258 21.9102 29.4533 21.9351C29.2808 21.96 29.1048 21.9426 28.9406 21.8843L27.0362 21.2069C26.8034 21.1238 26.549 21.1238 26.3162 21.2069L24.4118 21.8843C24.2303 21.9493 24.0345 21.9641 23.8453 21.9269C23.6562 21.8897 23.4806 21.802 23.3372 21.6731"
          stroke="#3C4196" stroke-miterlimit="10"/>
    <path d="M19.6575 13.5179L21.1521 15.7001C21.3343 15.9664 21.6028 16.1616 21.9123 16.2527L24.4479 17.0003C24.666 17.0651 24.8651 17.182 25.0279 17.3409C25.1908 17.4998 25.3125 17.6959 25.3826 17.9124C25.4527 18.1289 25.4691 18.3591 25.4303 18.5833C25.3916 18.8075 25.2988 19.0189 25.1601 19.1993L23.5479 21.2951C23.3514 21.5507 23.249 21.8662 23.2581 22.1885L23.3307 24.8285C23.3371 25.0563 23.2878 25.2822 23.1872 25.4867C23.0866 25.6912 22.9377 25.8681 22.7533 26.0021C22.5689 26.1361 22.3547 26.2231 22.1291 26.2556C21.9035 26.2881 21.6734 26.2651 21.4587 26.1887L18.9681 25.3031C18.6638 25.1951 18.3316 25.1951 18.0273 25.3031L15.5373 26.1887C15.3226 26.2651 15.0925 26.2881 14.8669 26.2556C14.6414 26.2231 14.4271 26.1361 14.2427 26.0021C14.0584 25.8681 13.9094 25.6912 13.8088 25.4867C13.7082 25.2822 13.6589 25.0563 13.6653 24.8285L13.7379 22.1885C13.7468 21.8661 13.6442 21.5506 13.4475 21.2951L11.8401 19.1993C11.701 19.0187 11.6081 18.807 11.5693 18.5824C11.5305 18.3578 11.547 18.1271 11.6175 17.9103C11.6879 17.6936 11.8101 17.4972 11.9736 17.3383C12.137 17.1795 12.3367 17.0628 12.5553 16.9985L15.0903 16.2509C15.4 16.1599 15.6688 15.9647 15.8511 15.6983L17.3457 13.5179C17.4746 13.3304 17.6472 13.1771 17.8486 13.0712C18.05 12.9653 18.2741 12.9099 18.5016 12.9099C18.7291 12.9099 18.9533 12.9653 19.1546 13.0712C19.356 13.1771 19.5286 13.3304 19.6575 13.5179V13.5179Z"
          stroke="#3C4196" stroke-miterlimit="10"/>
</svg>
